<?xml version="1.0" encoding="UTF-8" standalone="no"?>
<!DOCTYPE svg PUBLIC "-//W3C//DTD SVG 1.1//EN" "http://www.w3.org/Graphics/SVG/1.1/DTD/svg11.dtd">
<svg width="100%" height="100%" viewBox="0 0 2742 1659" version="1.1" xmlns="http://www.w3.org/2000/svg" xmlns:xlink="http://www.w3.org/1999/xlink" xml:space="preserve" xmlns:serif="http://www.serif.com/" style="fill-rule:evenodd;clip-rule:evenodd;stroke-linejoin:round;stroke-miterlimit:2;">
    <g transform="matrix(4.16667,0,0,4.16667,0,0)">
        <path d="M8.568,367L8.568,221.917L48.466,221.917C58.908,221.917 66.766,224.83 72.042,230.655C77.318,236.426 79.956,244.889 79.956,256.045L79.956,323.97C79.956,337.709 77.538,348.315 72.702,355.789C67.92,363.263 59.512,367 47.477,367L8.568,367ZM10.068,365.5L47.477,365.5C58.886,365.5 66.905,362.066 71.438,354.981L71.442,354.974C76.153,347.694 78.456,337.352 78.456,323.97L78.456,256.045C78.456,245.343 75.996,237.203 70.935,231.667L70.93,231.662C65.909,226.118 58.404,223.417 48.466,223.417L10.068,223.417L10.068,365.5ZM36.25,341.363L36.25,247.307C36.25,246.479 36.921,245.807 37.75,245.807L40.965,245.807C45.494,245.807 48.438,246.803 49.894,248.428C50.551,249.119 51.109,250.138 51.504,251.516C52.007,253.272 52.274,255.687 52.274,258.765L52.274,333.614C52.274,336.688 51.405,338.966 49.819,340.503C48.249,342.025 45.919,342.863 42.778,342.863L37.75,342.863C36.921,342.863 36.25,342.191 36.25,341.363ZM37.75,341.363L42.778,341.363C48.109,341.363 50.774,338.78 50.774,333.614L50.774,258.765C50.774,253.929 50.115,250.824 48.796,249.45C47.532,248.021 44.921,247.307 40.965,247.307L37.75,247.307L37.75,341.363ZM88.45,367L88.45,221.917L146.483,221.917L146.483,249.945L117.961,249.945L117.961,278.219L145.329,278.219L145.329,305.505L117.961,305.505L117.961,338.725L148.379,338.725L148.379,367L88.45,367ZM89.95,365.5L146.879,365.5L146.879,340.225L117.961,340.225C117.133,340.225 116.461,339.553 116.461,338.725L116.461,305.505C116.461,304.677 117.133,304.005 117.961,304.005L143.829,304.005L143.829,279.719L117.961,279.719C117.133,279.719 116.461,279.047 116.461,278.219L116.461,249.945C116.461,249.117 117.133,248.445 117.961,248.445L144.983,248.445L144.983,223.417L89.95,223.417L89.95,365.5ZM168.001,367L150.113,221.835L177.728,221.835L188.362,320.59L197.842,221.835L225.457,221.835L207.569,367L168.001,367ZM169.328,365.5L206.242,365.5L223.761,223.335L199.205,223.335L189.855,320.733C189.782,321.499 189.14,322.086 188.371,322.09C187.601,322.094 186.953,321.516 186.871,320.751L176.381,223.335L151.809,223.335L169.328,365.5ZM230.571,367L230.571,221.917L288.604,221.917L288.604,249.945L260.082,249.945L260.082,278.219L287.45,278.219L287.45,305.505L260.082,305.505L260.082,338.725L290.5,338.725L290.5,367L230.571,367ZM232.071,365.5L289,365.5L289,340.225L260.082,340.225C259.254,340.225 258.582,339.553 258.582,338.725L258.582,305.505C258.582,304.677 259.254,304.005 260.082,304.005L285.95,304.005L285.95,279.719L260.082,279.719C259.254,279.719 258.582,279.047 258.582,278.219L258.582,249.945C258.582,249.117 259.254,248.445 260.082,248.445L287.104,248.445L287.104,223.417L232.071,223.417L232.071,365.5ZM296.769,367L296.769,221.917L325.785,221.917L325.785,342.27L355.626,342.27L355.626,367L296.769,367ZM298.269,365.5L354.126,365.5L354.126,343.77L325.785,343.77C324.957,343.77 324.285,343.098 324.285,342.27L324.285,223.417L298.269,223.417L298.269,365.5ZM395.115,368.319C383.519,368.319 374.644,364.829 368.489,357.85C362.389,350.816 359.339,340.676 359.339,327.432L359.339,258.518C359.339,246.098 362.361,236.673 368.406,230.243C374.507,223.813 383.409,220.598 395.115,220.598C406.82,220.598 415.696,223.813 421.741,230.243C427.841,236.673 430.891,246.098 430.891,258.518L430.891,327.432C430.891,340.676 427.813,350.816 421.658,357.85C415.558,364.829 406.71,368.319 395.115,368.319ZM395.115,366.819C406.207,366.819 414.694,363.539 420.529,356.863C426.48,350.062 429.391,340.237 429.391,327.432L429.391,258.518C429.391,246.561 426.525,237.465 420.653,231.275L420.648,231.27C414.857,225.11 406.329,222.098 395.115,222.098C383.898,222.098 375.343,225.112 369.497,231.273C363.678,237.464 360.839,246.561 360.839,258.518L360.839,327.432C360.839,340.237 363.722,350.06 369.618,356.863C375.508,363.538 384.021,366.819 395.115,366.819ZM395.362,343.111C392.216,343.111 389.987,341.863 388.62,339.469L388.611,339.454C387.427,337.326 386.773,333.848 386.773,328.998L386.773,258.27C386.773,249.802 389.924,245.807 395.527,245.807C400.523,245.807 403.457,249.697 403.457,258.023L403.457,328.833C403.457,333.401 402.82,336.82 401.641,339.104C400.251,341.798 398.143,343.111 395.362,343.111ZM395.362,341.611C399.759,341.611 401.957,337.351 401.957,328.833L401.957,258.023C401.957,250.879 399.814,247.307 395.527,247.307C390.691,247.307 388.273,250.961 388.273,258.27L388.273,328.998C388.273,333.505 388.822,336.747 389.922,338.725C391.021,340.649 392.834,341.611 395.362,341.611ZM439.22,367L439.22,221.917L477.552,221.917C485.575,221.917 491.922,223.703 496.594,227.275C501.32,230.848 504.7,235.931 506.733,242.526C508.766,249.12 509.783,256.979 509.783,266.102C509.783,274.894 508.931,282.561 507.228,289.1C505.524,295.585 502.474,300.614 498.077,304.186C493.736,307.758 487.553,309.544 479.53,309.544L467.742,309.544L467.742,367L439.22,367ZM440.72,365.5L466.242,365.5L466.242,309.544C466.242,308.716 466.914,308.044 467.742,308.044L479.53,308.044C487.133,308.044 493.01,306.413 497.124,303.028L497.131,303.022C501.296,299.639 504.163,294.862 505.777,288.72C507.452,282.289 508.283,274.748 508.283,266.102C508.283,257.15 507.294,249.438 505.3,242.968C503.369,236.705 500.178,231.865 495.689,228.472L495.683,228.467C491.238,225.068 485.185,223.417 477.552,223.417L440.72,223.417L440.72,365.5ZM466.242,283.495L466.242,248.378C466.242,247.55 466.914,246.878 467.742,246.878L470.957,246.878C476.131,246.878 479.315,248.809 480.678,252.362C481.938,255.462 482.596,259.874 482.596,265.607C482.596,271.734 481.936,276.369 480.676,279.518C479.282,283.003 475.598,284.995 469.391,284.995L467.742,284.995C466.914,284.995 466.242,284.323 466.242,283.495ZM467.742,283.495L469.391,283.495C474.776,283.495 478.074,281.984 479.283,278.961C480.492,275.939 481.096,271.487 481.096,265.607C481.096,260.111 480.492,255.88 479.283,252.912C478.129,249.89 475.353,248.378 470.957,248.378L467.742,248.378L467.742,283.495ZM515.639,367L515.639,221.917L573.672,221.917L573.672,249.945L545.15,249.945L545.15,278.219L572.518,278.219L572.518,305.505L545.15,305.505L545.15,338.725L575.568,338.725L575.568,367L515.639,367ZM517.139,365.5L574.068,365.5L574.068,340.225L545.15,340.225C544.322,340.225 543.65,339.553 543.65,338.725L543.65,305.505C543.65,304.677 544.322,304.005 545.15,304.005L571.018,304.005L571.018,279.719L545.15,279.719C544.322,279.719 543.65,279.047 543.65,278.219L543.65,249.945C543.65,249.117 544.322,248.445 545.15,248.445L572.172,248.445L572.172,223.417L517.139,223.417L517.139,365.5ZM581.836,367L581.836,221.917L626.35,221.917C633.769,221.917 639.375,223.621 643.167,227.028C646.959,230.38 649.487,235.107 650.751,241.207C652.07,247.252 652.729,254.369 652.729,262.557C652.729,270.471 651.712,276.79 649.679,281.517C647.701,286.243 643.936,289.513 638.386,291.326C642.947,292.26 646.134,294.541 647.948,298.168C649.816,301.74 650.751,306.384 650.751,312.099L650.751,367L622.146,367L622.146,310.203C622.146,305.972 621.267,303.361 619.508,302.372C617.805,301.328 615.029,300.806 611.183,300.806L611.183,367L581.836,367ZM583.336,365.5L609.683,365.5L609.683,300.806C609.683,299.978 610.355,299.306 611.183,299.306C615.38,299.306 618.401,299.944 620.258,301.073C621.206,301.61 621.989,302.475 622.558,303.709C623.26,305.229 623.646,307.39 623.646,310.203L623.646,365.5L649.251,365.5L649.251,312.099C649.251,306.672 648.393,302.255 646.619,298.863L646.606,298.839C644.995,295.616 642.138,293.625 638.085,292.796C637.418,292.659 636.927,292.091 636.888,291.411C636.85,290.732 637.273,290.111 637.92,289.9C643.007,288.238 646.482,285.27 648.295,280.938L648.301,280.924C650.27,276.346 651.229,270.222 651.229,262.557C651.229,254.492 650.585,247.481 649.285,241.527L649.282,241.511C648.093,235.771 645.742,231.306 642.174,228.152L642.164,228.144C638.603,224.944 633.317,223.417 626.35,223.417L583.336,223.417L583.336,365.5ZM609.847,275.664L609.847,248.791C609.847,247.963 610.519,247.291 611.347,247.291L618.107,247.291C621.204,247.291 623.269,248.505 624.395,250.757C625.327,252.624 625.872,256.551 625.872,262.557C625.872,267.207 625.298,270.688 624.231,273.013C622.937,275.831 620.942,277.164 618.354,277.164L611.347,277.164C610.519,277.164 609.847,276.492 609.847,275.664ZM611.347,275.664L618.354,275.664C622.366,275.664 624.372,271.295 624.372,262.557C624.372,256.897 623.932,253.187 623.053,251.428C622.174,249.67 620.525,248.791 618.107,248.791L611.347,248.791L611.347,275.664Z" style="fill:rgb(243,182,76);"/>
    </g>
</svg>
