<svg width="658" height="398" viewBox="0 0 658 398" fill="none" xmlns="http://www.w3.org/2000/svg">
<path d="M8.56832 367V221.917H48.4661C58.9076 221.917 66.7663 224.83 72.042 230.655C77.3177 236.426 79.9556 244.889 79.9556 256.045V323.97C79.9556 337.709 77.5376 348.315 72.7015 355.789C67.9203 363.263 59.5121 367 47.4769 367H8.56832ZM37.7497 341.363H42.7782C48.1089 341.363 50.7742 338.78 50.7742 333.614V258.765C50.7742 253.929 50.1147 250.824 48.7958 249.45C47.5318 248.021 44.9214 247.307 40.9646 247.307H37.7497V341.363ZM88.4495 367V221.917H146.483V249.945H117.961V278.219H145.329V305.505H117.961V338.725H148.379V367H88.4495ZM168.001 367L150.113 221.835H177.728L188.362 320.59L197.842 221.835H225.457L207.569 367H168.001ZM230.571 367V221.917H288.604V249.945H260.082V278.219H287.45V305.505H260.082V338.725H290.5V367H230.571ZM296.769 367V221.917H325.785V342.27H355.626V367H296.769ZM395.115 368.319C383.519 368.319 374.644 364.829 368.489 357.85C362.389 350.816 359.339 340.676 359.339 327.432V258.518C359.339 246.098 362.361 236.673 368.406 230.243C374.507 223.813 383.409 220.598 395.115 220.598C406.82 220.598 415.696 223.813 421.741 230.243C427.841 236.673 430.891 246.098 430.891 258.518V327.432C430.891 340.676 427.813 350.816 421.658 357.85C415.558 364.829 406.71 368.319 395.115 368.319ZM395.362 341.611C399.759 341.611 401.957 337.351 401.957 328.833V258.023C401.957 250.879 399.814 247.307 395.527 247.307C390.691 247.307 388.273 250.961 388.273 258.27V328.998C388.273 333.505 388.822 336.747 389.922 338.725C391.021 340.649 392.834 341.611 395.362 341.611ZM439.22 367V221.917H477.552C485.575 221.917 491.922 223.703 496.594 227.275C501.32 230.848 504.7 235.931 506.733 242.526C508.766 249.12 509.783 256.979 509.783 266.102C509.783 274.894 508.931 282.561 507.228 289.1C505.524 295.585 502.474 300.614 498.077 304.186C493.736 307.758 487.553 309.544 479.53 309.544H467.742V367H439.22ZM467.742 283.495H469.391C474.776 283.495 478.074 281.984 479.283 278.961C480.492 275.939 481.096 271.487 481.096 265.607C481.096 260.111 480.492 255.88 479.283 252.912C478.129 249.89 475.353 248.378 470.957 248.378H467.742V283.495ZM515.639 367V221.917H573.672V249.945H545.15V278.219H572.518V305.505H545.15V338.725H575.568V367H515.639ZM581.836 367V221.917H626.35C633.769 221.917 639.375 223.621 643.167 227.028C646.959 230.38 649.487 235.107 650.751 241.207C652.07 247.252 652.729 254.369 652.729 262.557C652.729 270.471 651.712 276.79 649.679 281.517C647.701 286.243 643.936 289.513 638.386 291.326C642.947 292.26 646.134 294.541 647.948 298.168C649.816 301.74 650.751 306.384 650.751 312.099V367H622.146V310.203C622.146 305.972 621.267 303.361 619.508 302.372C617.805 301.328 615.029 300.806 611.183 300.806V367H581.836ZM611.347 275.664H618.354C622.366 275.664 624.372 271.295 624.372 262.557C624.372 256.897 623.932 253.187 623.053 251.428C622.174 249.67 620.525 248.791 618.107 248.791H611.347V275.664Z" fill="#F3B64C"/>
<path d="M7.63999 194V32.6397H72.1841V64.0866H40.0954V89.7576H70.5338V120.838H40.0954V194H7.63999ZM78.8806 194V32.6397H128.389C136.64 32.6397 142.875 34.5345 147.092 38.324C151.309 42.0524 154.121 47.3088 155.527 54.0933C156.994 60.8166 157.727 68.7319 157.727 77.8389C157.727 86.6404 156.596 93.6694 154.335 98.9258C152.134 104.182 147.948 107.819 141.774 109.836C146.847 110.875 150.393 113.412 152.41 117.446C154.488 121.418 155.527 126.583 155.527 132.94V194H123.713V130.831C123.713 126.125 122.735 123.222 120.779 122.121C118.884 120.96 115.798 120.379 111.519 120.379V194H78.8806ZM111.703 92.4164H119.496C123.958 92.4164 126.188 87.5572 126.188 77.8389C126.188 71.5434 125.699 67.4177 124.722 65.4619C123.744 63.506 121.91 62.528 119.221 62.528H111.703V92.4164ZM203.113 195.467C190.217 195.467 180.346 191.586 173.5 183.823C166.716 176 163.323 164.723 163.323 149.993V73.3465C163.323 59.5331 166.685 49.0508 173.408 41.8996C180.193 34.7484 190.094 31.1728 203.113 31.1728C216.132 31.1728 226.003 34.7484 232.727 41.8996C239.511 49.0508 242.903 59.5331 242.903 73.3465V149.993C242.903 164.723 239.48 176 232.635 183.823C225.85 191.586 216.01 195.467 203.113 195.467ZM203.388 165.762C208.278 165.762 210.723 161.025 210.723 151.551V72.7964C210.723 64.8507 208.339 60.8778 203.572 60.8778C198.193 60.8778 195.504 64.9423 195.504 73.0715V151.735C195.504 156.747 196.115 160.353 197.337 162.553C198.56 164.692 200.577 165.762 203.388 165.762ZM252.167 194V32.6397H285.356L300.208 109.928V32.6397H331.38V194H299.841L283.705 113.32V194H252.167ZM355.771 194V63.6282H336.61V32.6397H407.205V63.6282H388.043V194H355.771ZM412.434 194V32.6397H476.978V63.8116H445.256V95.2585H475.695V125.605H445.256V162.553H479.087V194H412.434ZM486.059 194V32.6397H519.247L534.1 109.928V32.6397H565.272V194H533.733L517.597 113.32V194H486.059ZM575.819 194V32.6397H620.193C631.806 32.6397 640.546 35.8791 646.414 42.358C652.282 48.7757 655.216 58.1884 655.216 70.5961V146.142C655.216 161.422 652.526 173.219 647.147 181.531C641.83 189.844 632.478 194 619.093 194H575.819ZM608.274 165.487H613.867C619.796 165.487 622.76 162.614 622.76 156.869V73.6216C622.76 68.2429 622.027 64.7895 620.56 63.2615C619.154 61.6723 616.251 60.8778 611.85 60.8778H608.274V165.487Z" fill="#F3B64C"/>
</svg>
