<svg width="228" height="129" viewBox="0 0 228 129" fill="none" xmlns="http://www.w3.org/2000/svg">
<path d="M36.1378 124.068C33.4831 124.648 30.6417 124.729 27.6136 124.309C24.6017 123.963 21.9194 123.004 19.5666 121.432C17.2139 119.861 15.6989 117.526 15.0216 114.429C14.3765 111.479 14.6728 108.594 15.9105 105.773C17.0744 102.969 18.7741 100.318 21.0096 97.8199C23.3027 95.2322 25.7341 92.9233 28.3037 90.8932C30.8572 88.7894 33.1802 87.0451 35.2727 85.6602C40.2621 82.3283 45.5936 79.5011 51.2674 77.1786C56.925 74.7823 62.6424 72.8366 68.4198 71.3413C71.9002 61.4624 75.119 51.4474 78.0763 41.2964C77.9703 41.1651 77.9012 41.0257 77.8689 40.8782C77.6915 40.067 77.8091 39.1913 78.2217 38.2511C78.708 37.2948 79.1079 36.4733 79.4213 35.7866C77.0454 36.2289 74.6245 36.6424 72.1587 37.027C69.7667 37.3956 67.3907 37.8379 65.0309 38.354C61.86 39.0474 58.8353 40.0565 55.9569 41.3814C54.5627 42.0727 52.9299 43.0865 51.0586 44.423C49.1873 45.7595 47.6306 47.2976 46.3883 49.0374C45.13 50.7034 44.7105 52.4951 45.1298 54.4124C45.5007 56.1085 46.4419 57.4095 47.9536 58.3152C49.5229 59.1311 51.3019 59.6693 53.2906 59.9298C55.3531 60.1742 57.3465 60.2792 59.2707 60.2448C61.2687 60.1942 62.8818 60.1505 64.1101 60.1137C64.2575 60.0815 64.45 60.078 64.6873 60.1034C64.9984 60.1126 65.1782 60.2279 65.2265 60.4491C65.2749 60.6703 65.1228 60.8581 64.7702 61.0125C64.4914 61.1508 64.2782 61.236 64.1307 61.2683C64.057 61.2844 63.9095 61.3167 63.6883 61.365C63.5246 61.3235 63.3691 61.3189 63.2216 61.3512C61.7721 61.4363 59.7741 61.4869 57.2277 61.5029C54.7389 61.429 52.1441 61.2237 49.4433 60.8871C46.8001 60.4606 44.4772 59.7322 42.4747 58.702C40.4722 57.6718 39.2533 56.1611 38.8179 54.17C38.4308 52.4002 38.7639 50.7433 39.8172 49.1994C40.8543 47.5817 42.2347 46.1208 43.9586 44.8166C45.6824 43.5124 47.4465 42.3925 49.251 41.457C51.113 40.4317 52.6836 39.6632 53.9626 39.1517C57.5046 37.6817 61.1192 36.5435 64.8064 35.7372L65.3595 35.6163C67.9405 35.0519 70.5296 34.5243 73.1268 34.0336C75.7239 33.5429 78.2762 33.0234 80.7835 32.4751C80.9241 32.058 81.0566 31.6041 81.1811 31.1132C81.3793 30.6063 81.5936 30.1731 81.8241 29.8136C82.2113 29.1107 82.9626 28.4828 84.078 27.9298C85.251 27.287 86.2062 26.8849 86.9436 26.7236C87.2386 26.6591 87.5785 26.6234 87.9634 26.6165C88.422 26.5935 88.6916 26.7664 88.7722 27.1351C88.8367 27.4301 88.6258 28.0557 88.1395 29.012C87.6532 29.9683 87.3317 30.6182 87.175 30.9615C88.3387 30.6298 89.9081 30.2093 91.8831 29.7002C93.9156 29.1011 95.8503 28.4076 97.687 27.6196C99.5076 26.7579 100.764 25.7878 101.455 24.7093C101.57 24.5296 101.685 24.3498 101.801 24.1701C101.99 23.9742 102.195 23.8521 102.416 23.8037C102.637 23.7553 102.764 23.8049 102.796 23.9524C102.861 24.2474 102.807 24.5297 102.634 24.7993C101.76 26.4584 100.306 27.9355 98.271 29.2305C96.22 30.4517 94.018 31.5127 91.6651 32.4136C89.3698 33.2247 87.3453 33.8606 85.5916 34.3213C83.0747 40.1261 80.8563 46.0588 78.9363 52.1194C77.0002 58.1062 75.109 64.1219 73.2627 70.1664L75.0326 69.7793C75.3275 69.7148 75.9048 69.7045 76.7644 69.7484C77.6815 69.7023 78.1885 69.9005 78.2853 70.343C78.3498 70.638 77.9476 70.9191 77.0788 71.1864C76.2838 71.4375 75.4069 71.6679 74.4482 71.8775C73.4734 72.0134 72.8754 72.1056 72.6542 72.1539C71.2551 76.7098 69.7454 81.2898 68.1251 85.894C66.5785 90.4821 64.8153 94.963 62.8354 99.3367C61.1115 103.114 58.9623 106.713 56.388 110.135C53.9036 113.615 50.9583 116.577 47.5521 119.022C44.2197 121.45 40.415 123.132 36.1378 124.068ZM34.4269 121.544C38.3354 120.689 41.8048 118.888 44.8354 116.138C47.9397 113.373 50.6442 110.193 52.9488 106.599C55.2535 103.004 57.1607 99.5345 58.6703 96.1908C60.3206 92.4301 61.889 88.6486 63.3756 84.8463C64.9199 80.9542 66.3904 77.0782 67.7871 73.2183C62.3047 74.649 56.8246 76.6201 51.3467 79.1316C45.9265 81.5532 40.9671 84.4923 36.4686 87.9486C34.6871 89.3427 32.7697 90.9984 30.7163 92.9155C28.6629 94.8327 26.7316 96.955 24.9225 99.2824C23.1871 101.594 21.8607 104.009 20.9434 106.527C20.026 109.046 19.8496 111.596 20.414 114.177C21.1236 117.422 22.8806 119.626 25.685 120.79C28.4895 121.954 31.4034 122.205 34.4269 121.544ZM107.334 90.5329C105.343 90.9683 103.846 90.4843 102.844 89.0808C101.899 87.5875 101.249 86.0296 100.895 84.4072C100.427 82.2687 100.18 80.0817 100.155 77.8464C100.13 75.6111 99.9573 73.408 99.6372 71.2372C98.9941 72.5369 98.0872 74.3965 96.9164 76.8161C95.7294 79.162 94.3823 81.6588 92.875 84.3065C91.3516 86.8805 89.7925 89.1145 88.1977 91.0087C86.6029 92.9029 85.1049 94.0031 83.7038 94.3095C80.9753 94.9062 79.2966 93.7666 78.6676 90.8905C78.2483 88.9732 78.1897 86.9384 78.4917 84.786C78.8514 82.5438 79.3378 80.3512 79.9509 78.208C80.6216 75.9751 81.2221 73.9506 81.7522 72.1348L81.531 72.1831C81.0885 72.2799 80.827 72.1439 80.7463 71.7752C80.7141 71.6277 80.6899 71.5171 80.6738 71.4434C80.7314 71.3535 80.7521 71.2717 80.736 71.1979C81.3814 69.2023 81.8988 67.5051 82.2884 66.1063C82.6618 64.6338 83.329 63.4448 84.29 62.5392C85.2511 61.6336 86.8746 60.9308 89.1606 60.4309C89.5294 60.3503 89.7621 60.5312 89.8589 60.9736C89.9718 61.4899 89.7839 62.5741 89.2952 64.2263C88.7904 65.8049 88.2119 67.3995 87.5596 69.0103C86.9074 70.6211 86.4614 71.7617 86.2217 72.4323C85.8414 73.52 85.4184 75.1193 84.9528 77.2301C84.4871 79.341 84.0952 81.4357 83.7771 83.5143C83.5327 85.5768 83.5314 87.1611 83.7733 88.2673C83.854 88.636 83.9715 88.9966 84.1258 89.3492C84.3378 89.6119 84.6651 89.6949 85.1075 89.5982C85.845 89.4369 86.6204 88.9196 87.434 88.0463C88.2314 87.0992 88.8398 86.348 89.2592 85.7926C91.6031 82.7302 93.6612 79.4211 95.4335 75.8654C97.1898 72.236 98.7167 68.6181 100.014 65.0117C100.139 64.5209 100.161 64.0911 100.08 63.7224C100.108 62.7891 100.254 61.8684 100.519 60.9605C100.784 60.0526 101.229 59.2599 101.854 58.5824C102.363 58.0847 103.11 57.6123 104.094 57.1653C105.078 56.7183 105.865 56.4303 106.455 56.3013C106.75 56.2368 107.135 56.2299 107.609 56.2806C108.068 56.2576 108.337 56.4305 108.418 56.7992C108.499 57.1679 108.296 57.8304 107.81 58.7867C107.397 59.7269 106.911 60.6832 106.351 61.6557C105.848 62.5383 105.506 63.2699 105.324 63.8506C104.918 65.1757 104.707 67.0376 104.691 69.4366C104.659 71.7618 104.745 74.0997 104.95 76.4502C105.155 78.8008 105.418 80.7135 105.741 82.1884C105.951 83.147 106.295 84.1921 106.774 85.3237C107.254 86.4552 108.12 86.8839 109.374 86.6097C110.627 86.3356 111.776 85.5821 112.82 84.3493C113.922 83.0266 114.847 81.7811 115.596 80.6128C116.329 79.3707 116.769 78.7335 116.917 78.7013C116.99 78.6852 117.043 78.7509 117.076 78.8983C117.221 79.562 117.021 80.417 116.477 81.4632C115.934 82.5094 115.308 83.5348 114.6 84.5395C113.95 85.4543 113.445 86.1445 113.083 86.6099C112.343 87.4672 111.476 88.2748 110.483 89.0329C109.49 89.791 108.44 90.291 107.334 90.5329ZM112.845 90.1391C112.329 90.252 112.067 90.116 112.06 89.7312C113.351 85.74 114.441 81.7153 115.331 77.6572C116.295 73.583 117.139 69.4961 117.866 65.3965C117.833 65.249 117.892 64.8112 118.042 64.083C118.176 63.281 118.234 62.8432 118.218 62.7694C118.17 62.5482 117.969 62.5148 117.617 62.6691C117.264 62.8235 117.056 62.7532 116.991 62.4582C116.959 62.3108 117.133 61.6932 117.513 60.6055C117.877 59.4441 118.278 58.2746 118.716 57.097C119.138 55.8457 119.399 55.0934 119.498 54.8399C119.77 54.3168 120.374 53.7211 121.309 53.0529C122.245 52.3846 122.971 51.9941 123.487 51.8812C124.224 51.7199 124.666 51.9712 124.811 52.6348C124.859 52.8561 124.762 53.65 124.52 55.0165C124.278 56.383 123.937 58.003 123.497 59.8765C123.057 61.75 122.624 63.6604 122.2 65.6076C121.776 67.5549 121.377 69.2647 121.004 70.7373C120.63 72.2098 120.381 73.1915 120.257 73.6823C120.686 72.8159 121.411 71.5369 122.432 69.8455C123.51 68.0643 124.712 66.1401 126.037 64.0731C127.436 61.99 128.851 59.9806 130.282 58.0449C131.697 56.0355 133.001 54.3983 134.192 53.1332C135.441 51.7783 136.472 51.0121 137.283 50.8347C137.873 50.7057 138.253 50.8544 138.423 51.2807C138.668 51.6909 138.83 52.0804 138.911 52.4491C139.12 53.4078 139.227 54.4275 139.232 55.5083C139.236 56.5891 139.196 57.6411 139.111 58.6642C139.005 61.0056 138.84 63.7847 138.616 67.0017C138.45 70.1289 138.609 72.7986 139.092 75.0109C139.334 76.1171 139.744 77.1092 140.323 77.9872C140.959 78.7754 141.94 79.0243 143.268 78.734C144.3 78.5083 145.297 77.9426 146.258 77.037C147.293 76.1153 148.193 75.1071 148.958 74.0126C149.781 72.8281 150.488 71.8234 151.08 70.9985C151.747 70.1574 152.19 69.7127 152.411 69.6643C152.485 69.6482 152.538 69.7138 152.57 69.8613C152.619 70.0826 152.61 70.3937 152.543 70.7946C152.533 71.1057 152.471 71.3512 152.356 71.5309C151.579 73.6325 150.233 75.7813 148.318 77.9774C146.477 80.1573 144.45 81.4891 142.238 81.9729C139.951 82.4728 138.073 82.1881 136.603 81.1187C135.191 79.9595 134.242 78.2737 133.759 76.0614C133.339 74.1441 133.204 71.9329 133.351 69.428C133.573 66.9069 133.732 64.6313 133.829 62.6011C133.847 61.9789 133.878 61.238 133.922 60.3784C134.04 59.5027 134.034 58.7699 133.905 58.18C133.873 58.0325 133.796 57.8562 133.673 57.6511C133.551 57.446 133.38 57.3676 133.158 57.416C132.79 57.4966 132.359 57.8227 131.866 58.3941C131.43 58.8758 131.089 59.2594 130.842 59.5452C129.699 61.0315 128.444 62.8899 127.078 65.1206C125.785 67.3351 124.532 69.7339 123.32 72.3171C122.091 74.8266 121.002 77.267 120.053 79.6382C119.103 82.0094 118.4 84.0949 117.944 85.8947C117.877 86.2956 117.494 86.8429 116.796 87.5365C116.155 88.1402 115.425 88.6863 114.604 89.1748C113.874 89.7209 113.287 90.0424 112.845 90.1391ZM155.134 41.5992C154.913 41.6476 154.709 41.4217 154.523 40.9217C154.394 40.3317 154.313 39.963 154.281 39.8155C154.232 39.5943 154.164 39.1069 154.077 38.3533C153.989 37.5997 154.122 37.1458 154.475 36.9914C155.475 36.6181 156.467 36.208 157.451 35.761C158.435 35.314 159.411 34.8301 160.379 34.3094C160.51 34.2034 160.723 34.1181 161.018 34.0536C161.387 33.973 161.612 34.1171 161.692 34.4858C161.87 35.297 161.539 36.2579 160.7 37.3686C159.919 38.3894 158.966 39.3319 157.841 40.196C156.774 40.9702 155.872 41.4379 155.134 41.5992ZM154.012 79.398C150.399 80.1882 148.189 78.7397 147.382 75.0525C147.044 73.5039 146.918 71.87 147.006 70.1509C147.167 68.4157 147.39 66.783 147.673 65.2528C147.982 63.4853 148.373 61.7386 148.846 60.0126C149.318 58.2866 149.791 56.5606 150.263 54.8345C150.487 54.0902 150.673 53.354 150.823 52.6258C151.031 51.8077 151.246 51.0265 151.47 50.2822C151.726 49.6853 152.329 49.0897 153.281 48.4952C154.233 47.9007 155.004 47.5389 155.594 47.4099C155.668 47.3938 155.676 47.4307 155.618 47.5205C155.544 47.5367 155.507 47.5447 155.507 47.5447C155.581 47.5286 155.626 47.5574 155.642 47.6312C155.757 47.4514 155.926 47.3374 156.147 47.289C156.442 47.2245 156.659 47.3316 156.797 47.6105C156.919 47.8156 157.004 48.0288 157.053 48.25C157.165 48.7662 157.113 49.5889 156.897 50.7181C156.754 51.8311 156.492 52.9315 156.112 54.0192C155.789 55.017 155.394 55.6829 154.926 56.017C154.601 57.7108 154.087 59.6004 153.384 61.6859C152.755 63.7553 152.207 65.8454 151.742 67.9562C151.26 69.9933 151.213 71.8968 151.6 73.6667C152.051 75.7315 153.383 76.522 155.595 76.0382C156.628 75.8124 157.661 75.2387 158.696 74.317C159.805 73.3791 160.852 72.3388 161.839 71.1958C162.809 69.9791 163.627 68.9502 164.293 68.1091C165.033 67.2519 165.513 66.7991 165.735 66.7508C165.808 66.7346 165.853 66.7634 165.869 66.8372C165.934 67.1322 165.896 67.4882 165.755 67.9053C165.598 68.2486 165.462 68.5102 165.347 68.6899C164.72 70.0634 163.807 71.5381 162.606 73.1143C161.389 74.6167 160.021 75.959 158.502 77.1411C157.057 78.3071 155.561 79.0594 154.012 79.398ZM167.767 77.3173C166.145 77.672 164.79 77.6593 163.702 77.279C162.672 76.8088 161.955 75.6519 161.552 73.8083C161.052 71.5223 161.086 68.8491 161.653 65.7888C162.294 62.7124 163.18 59.6982 164.312 56.7463C165.427 53.7206 166.537 51.1984 167.641 49.1798L167.593 48.9586C167.206 47.1887 167.592 45.5975 168.751 44.185C169.968 42.6825 171.479 41.4636 173.283 40.5281C175.071 39.5189 176.666 38.861 178.067 38.5546C179.985 38.1353 181.667 38.2311 183.114 38.8419C184.635 39.4365 185.629 40.8031 186.097 42.9417C186.5 44.7853 186.488 47.0287 186.062 49.6719C185.619 52.2413 184.898 54.949 183.897 57.7949C182.955 60.551 181.861 63.1469 180.616 65.5826C179.356 67.9446 178.154 69.8688 177.011 71.3551C178.407 72.4406 179.99 72.7898 181.76 72.4028C181.908 72.3705 182.1 72.3671 182.337 72.3924C182.575 72.4178 182.71 72.5042 182.742 72.6517C182.806 72.9467 182.699 73.1633 182.42 73.3015C182.215 73.4237 182.002 73.5089 181.781 73.5573C180.822 73.7669 179.852 73.7473 178.87 73.4983C177.946 73.1595 177.072 72.694 176.247 72.1017C173.986 74.8369 171.159 76.5754 167.767 77.3173ZM175.701 70.1348C176.984 68.2314 178.102 65.7461 179.054 62.6789C180.064 59.5219 180.799 56.3475 181.26 53.1559C181.705 49.8905 181.686 47.1516 181.202 44.9393C181.008 44.0544 180.623 43.1729 180.044 42.2949C179.466 41.4169 178.587 41.1069 177.407 41.3649C176.522 41.5584 175.746 42.0757 175.08 42.9168C174.414 43.7579 173.986 44.6243 173.794 45.5161C173.99 45.7051 174.202 45.9678 174.43 46.3043C174.732 46.6246 174.915 46.9323 174.98 47.2273C175.044 47.5222 175.011 47.7227 174.88 47.8287C174.034 48.5546 173.241 49.3461 172.501 50.2033C171.819 50.9706 171.161 51.8486 170.527 52.8372C170.474 54.0078 170.503 55.1992 170.613 56.4114C170.724 57.6235 170.908 58.8196 171.166 59.9995C171.537 61.6956 172.08 63.47 172.794 65.3229C173.582 67.1596 174.551 68.7635 175.701 70.1348ZM171.587 73.5843C172.325 73.423 172.956 73.1304 173.481 72.7064C174.064 72.1925 174.566 71.6579 174.985 71.1026C173.402 69.517 172.086 67.5639 171.038 65.2433C169.99 62.9226 169.232 60.693 168.764 58.5544C168.144 60.3127 167.614 62.1286 167.174 64.0021C166.717 65.8018 166.699 67.6604 167.118 69.5777C167.36 70.6838 167.815 71.7048 168.483 72.6404C169.225 73.5599 170.26 73.8746 171.587 73.5843ZM189.494 73.3774C188.977 73.4903 188.716 73.3543 188.709 72.9695C189.885 69.158 190.823 65.3211 191.523 61.4589C192.208 57.5229 192.856 53.595 193.467 49.6752L193.982 46.2012C193.934 45.98 193.733 45.9466 193.381 46.101C193.028 46.2553 192.82 46.185 192.755 45.8901C192.723 45.7426 192.897 45.125 193.277 44.0373C193.641 42.8759 194.042 41.7064 194.48 40.5288C194.902 39.2776 195.163 38.5252 195.262 38.2717C195.46 37.7647 196.027 37.1771 196.962 36.5089C197.898 35.8406 198.624 35.4501 199.14 35.3372C199.951 35.1598 200.43 35.403 200.575 36.0667C200.623 36.2879 200.635 36.5172 200.609 36.7545C200.584 36.9919 200.55 37.1924 200.509 37.356C199.983 40.2527 199.347 43.1735 198.6 46.1186C197.911 48.9738 197.467 51.8912 197.269 54.8708C198.843 51.8221 200.618 48.8069 202.593 45.825C204.626 42.7533 206.744 39.8948 208.947 37.2494C209.555 36.4982 210.245 35.7677 211.017 35.058C211.863 34.3321 212.765 33.8644 213.724 33.6547C214.904 33.3967 215.738 33.6779 216.227 34.4983C216.699 35.245 217.032 36.0608 217.226 36.9457C217.484 38.1256 217.389 39.4599 216.942 40.9486C216.495 42.4372 215.571 43.3347 214.169 43.6411C213.579 43.7702 213.236 43.6134 213.139 43.171C213.059 42.8022 213.031 42.4992 213.056 42.2619C213.066 41.9508 213.038 41.6477 212.974 41.3527C212.893 40.984 212.649 40.5738 212.241 40.1221C211.833 39.6704 211.445 39.4849 211.076 39.5655C210.117 39.7751 208.956 40.6473 207.591 42.182C206.227 43.7167 204.845 45.5256 203.446 47.6087C202.121 49.6757 200.936 51.6736 199.889 53.6024C198.9 55.4413 198.192 56.794 197.763 57.6604C197.21 59.0177 196.775 60.3877 196.46 61.7703C196.128 63.0792 195.914 64.4008 195.82 65.7351C195.769 66.2098 195.726 66.7214 195.692 67.2699C195.641 67.7446 195.582 68.1824 195.515 68.5834C195.449 68.9844 195 69.5846 194.171 70.3842C193.325 71.1101 192.426 71.7703 191.474 72.3647C190.596 72.9431 189.936 73.2807 189.494 73.3774Z" fill="white"/>
</svg>
