<svg width="192" height="171" viewBox="0 0 192 171" fill="none" xmlns="http://www.w3.org/2000/svg">
<path d="M70.0045 41.4103C70.0045 41.4103 64.2404 41.0899 64.4406 47.0092C64.6409 52.931 66.6382 55.141 70.0045 54.9383C73.3709 54.7381 76.6822 46.1082 76.6822 46.1082L70.0045 41.4103Z" fill="white"/>
<path d="M69.6024 55.3191C68.2858 55.3191 67.1921 54.9312 66.3511 54.1653C64.9395 52.8788 64.1936 50.5411 64.0735 47.0221C64.0109 45.1424 64.519 43.6632 65.5802 42.6221C67.3272 40.9151 69.9177 41.0377 70.0278 41.0427C70.0954 41.0477 70.1605 41.0703 70.2181 41.1103L76.8957 45.8082C77.0334 45.9033 77.0884 46.0835 77.0259 46.2387C77.0184 46.2612 76.1749 48.4487 74.926 50.6287C73.204 53.6397 71.5571 55.214 70.0278 55.3066C69.8827 55.3141 69.7425 55.3191 69.6024 55.3191ZM69.8677 41.7736C69.3646 41.7736 67.4048 41.8612 66.0908 43.1502C65.1823 44.0412 64.7518 45.3352 64.8094 46.9971C64.9195 50.3109 65.5877 52.4759 66.8467 53.6222C67.6351 54.3405 68.6613 54.6534 69.9853 54.5733C72.4581 54.4231 75.2363 48.7441 76.2375 46.2412L69.8877 41.7736C69.8802 41.7736 69.8727 41.7736 69.8677 41.7736Z" fill="black"/>
<path d="M65.9246 48.5467C65.7218 48.5467 65.5591 48.384 65.5566 48.1838C65.5566 48.0887 65.5541 45.8436 67.1334 44.3168C68.1271 43.3557 69.5112 42.9027 71.2457 42.9753C71.4484 42.9853 71.6061 43.1555 71.5986 43.3582C71.5886 43.561 71.4184 43.7161 71.2156 43.7086C69.6914 43.6461 68.4925 44.0265 67.649 44.8399C66.295 46.1439 66.29 48.1562 66.29 48.1788C66.2925 48.379 66.1298 48.5467 65.9271 48.5467C65.9246 48.5467 65.9246 48.5467 65.9246 48.5467Z" fill="black"/>
<path d="M119.678 40.4142C119.678 40.4142 125.442 40.0938 125.242 46.0131C125.042 51.9349 123.042 54.1449 119.678 53.9447C116.312 53.742 112.998 45.1121 112.998 45.1121L119.678 40.4142Z" fill="white"/>
<path d="M120.082 54.322C119.942 54.322 119.799 54.317 119.654 54.3095C118.127 54.2169 116.48 52.6426 114.758 49.6317C113.509 47.4517 112.666 45.2642 112.656 45.2416C112.598 45.0839 112.651 44.9062 112.789 44.8111L119.466 40.1132C119.521 40.0732 119.589 40.0507 119.656 40.0457C119.767 40.0407 122.357 39.918 124.104 41.625C125.165 42.6662 125.673 44.1454 125.608 46.025C125.491 49.5466 124.745 51.8817 123.333 53.1682C122.49 53.9341 121.398 54.322 120.082 54.322ZM113.447 45.2441C114.448 47.7495 117.224 53.4285 119.699 53.5762C121.02 53.6563 122.047 53.3434 122.838 52.6251C124.096 51.4788 124.762 49.3138 124.875 46C124.932 44.3356 124.499 43.0391 123.588 42.1506C122.249 40.8391 120.262 40.774 119.797 40.7765L113.447 45.2441Z" fill="black"/>
<path d="M123.758 47.5501C123.758 47.5501 123.758 47.5501 123.756 47.5501C123.553 47.5476 123.39 47.385 123.393 47.1822C123.393 47.1572 123.385 45.1474 122.036 43.8434C121.19 43.03 119.991 42.6495 118.467 42.7146C118.264 42.7221 118.094 42.5644 118.084 42.3617C118.077 42.159 118.234 41.9888 118.437 41.9788C120.172 41.9087 121.556 42.3592 122.549 43.3203C124.129 44.8496 124.126 47.0921 124.126 47.1872C124.124 47.3875 123.961 47.5501 123.758 47.5501Z" fill="black"/>
<path d="M113.779 86.7807V69.9238H79.3945V86.7807L97.5904 92.5348L113.779 86.7807Z" fill="white"/>
<path d="M97.5892 92.9024C97.5516 92.9024 97.5141 92.8949 97.4791 92.8849L79.2807 87.1308C79.1305 87.0833 79.0254 86.9406 79.0254 86.7804V69.9236C79.0254 69.7209 79.1906 69.5557 79.3933 69.5557H113.778C113.98 69.5557 114.146 69.7209 114.146 69.9236V86.7804C114.146 86.9356 114.048 87.0733 113.9 87.1258L97.7118 92.8799C97.6718 92.8949 97.6317 92.9024 97.5892 92.9024ZM79.7587 86.5126L97.5817 92.1466L113.412 86.5226V70.289H79.7587V86.5126Z" fill="black"/>
<path d="M71.3254 45.8708C70.9775 43.7809 70.069 41.8537 69.4833 39.7413C67.8189 33.7344 66.3447 26.4035 68.8251 20.4191C68.8251 20.4191 65.2109 5.03147 90.2321 3.42713C90.2321 3.42713 90.8178 -1.6562 96.7471 1.28718C102.674 4.23055 102.541 8.51046 108.428 9.71434C114.315 10.9182 120.151 16.4245 120.512 23.1047C120.87 29.7849 120.201 36.6077 119.801 39.018C119.01 43.7584 118.662 47.6629 119.708 52.3783C120.151 54.3756 120.387 56.4329 120.357 58.4828C120.269 64.297 117.776 69.6005 113.484 73.5125C110.941 75.8302 107.94 77.6097 104.814 79.0214C104.814 79.0214 81.8024 85.0433 74.6768 72.3988C74.3314 71.7856 73.598 71.2324 73.1725 70.6518C71.9937 69.0399 71.1052 67.2103 70.5095 65.3056C69.6185 62.4523 69.4132 59.4239 69.7561 56.4605C70.064 53.7749 71.2053 51.0568 71.4355 48.2886C71.5081 47.4476 71.4556 46.6467 71.3254 45.8708Z" fill="black"/>
<path d="M92.8938 80.8209C92.7336 80.8209 92.5734 80.8184 92.4132 80.8184C88.5113 80.7733 85.0948 80.1977 82.2591 79.1089C78.6825 77.7373 76.0244 75.5373 74.3575 72.5789C74.1823 72.2711 73.872 71.9532 73.5741 71.6479C73.3288 71.3976 73.0735 71.1373 72.8758 70.867C71.702 69.2626 70.7884 67.428 70.1602 65.4132C69.2842 62.6125 69.0264 59.5865 69.3893 56.4179C69.5395 55.1239 69.8799 53.8099 70.2103 52.5409C70.5732 51.1393 70.9511 49.6877 71.0712 48.256C71.1338 47.5051 71.0988 46.7443 70.9636 45.9308C70.7534 44.6794 70.3429 43.5006 69.9099 42.2491C69.6371 41.4732 69.3593 40.6673 69.129 39.8389C68.3982 37.1983 67.5222 33.7068 67.2343 30.1002C66.929 26.3133 67.3244 23.1322 68.4407 20.384C68.3731 20.0311 68.1979 18.9324 68.3156 17.4332C68.4432 15.7788 68.9713 13.3034 70.7509 10.9032C72.2851 8.83579 74.4977 7.13884 77.3334 5.86238C80.6673 4.36065 84.9021 3.42458 89.9229 3.07919C90.0555 2.46848 90.491 1.10943 91.7725 0.413627C93.054 -0.282171 94.7834 -0.0994611 96.9109 0.95675C99.6565 2.32082 101.148 3.98272 102.465 5.4494C104.039 7.20392 105.398 8.72066 108.502 9.35388C114.286 10.5377 120.495 15.9965 120.878 23.0846C121.224 29.527 120.623 36.3123 120.163 39.0755C119.339 44.0161 119.059 47.7629 120.067 52.2981C120.533 54.3981 120.756 56.4804 120.723 58.4852C120.636 64.3194 118.15 69.7532 113.73 73.7828C111.367 75.9353 108.502 77.7574 104.968 79.3542C104.948 79.3642 104.928 79.3692 104.908 79.3742C104.85 79.3892 99.3086 80.8209 92.8938 80.8209ZM93.5095 0.733995C92.9864 0.733995 92.5259 0.841618 92.1254 1.05687C90.8139 1.76518 90.5961 3.45211 90.5936 3.46963C90.5736 3.64483 90.431 3.78249 90.2533 3.7925C80.9751 4.38819 74.6128 6.9286 71.3391 11.3412C68.1329 15.6636 69.1691 20.2889 69.1816 20.334C69.1991 20.4091 69.1916 20.4867 69.1616 20.5592C66.7137 26.471 68.2355 33.862 69.8348 39.6411C70.0576 40.4496 70.3354 41.243 70.6007 42.0088C71.0287 43.2327 71.4667 44.4992 71.687 45.8107C71.8321 46.6842 71.8697 47.5051 71.8021 48.3186C71.6769 49.8103 71.2915 51.292 70.9211 52.7261C70.5832 54.0301 70.2628 55.259 70.1202 56.5005C69.7672 59.569 70.015 62.4923 70.861 65.1954C71.4642 67.1327 72.3427 68.8947 73.469 70.434C73.6367 70.6642 73.8594 70.892 74.0972 71.1348C74.4301 71.4752 74.7755 71.8256 74.9983 72.2185C78.5924 78.5958 86.4564 80.0149 92.4207 80.085C98.7004 80.1551 104.242 78.7885 104.692 78.6734C108.141 77.1116 110.937 75.3346 113.235 73.2397C117.505 69.3502 119.905 64.1067 119.99 58.4752C120.02 56.5255 119.805 54.5007 119.349 52.4558C118.315 47.8055 118.598 43.9836 119.437 38.9553C119.892 36.2222 120.488 29.507 120.143 23.1247C119.78 16.3895 113.865 11.201 108.354 10.0747C105.013 9.39143 103.508 7.7145 101.917 5.93997C100.583 4.45326 99.2035 2.914 96.583 1.61501C95.4017 1.02683 94.373 0.733995 93.5095 0.733995Z" fill="black"/>
<path d="M107.889 16.2686C107.889 16.2686 99.5946 16.5364 90.4966 20.4183C81.3962 24.2978 79.6592 25.1012 75.109 23.6295C75.109 23.6295 72.4534 28.6778 72.979 41.4049C73.5046 54.1345 72.969 59.1127 80.1923 54.9504C87.4181 50.7882 89.558 48.7809 96.5836 49.1838C103.607 49.5843 109.093 51.5015 112.437 53.9543C115.783 56.4071 117.79 51.2912 117.387 45.7549C116.987 40.2185 117.387 32.7249 114.444 28.5777C111.501 24.4304 109.093 21.2192 107.889 16.2686Z" fill="white"/>
<path d="M76.3068 56.7553C75.8462 56.7553 75.4458 56.6577 75.0929 56.46C73.1206 55.3688 72.9829 51.5444 72.7352 44.6064C72.6976 43.5902 72.6601 42.5415 72.615 41.4202C72.3422 34.8077 72.9404 30.2925 73.491 27.6695C74.0917 24.7987 74.76 23.5122 74.7875 23.4571C74.8701 23.2995 75.0553 23.2244 75.2255 23.2794C76.5896 23.7224 77.6808 23.9577 78.8096 23.9577C81.2649 23.9577 83.8905 22.8364 89.8823 20.281L90.3529 20.0808C99.4108 16.2163 107.795 15.906 107.878 15.9035C108.053 15.8985 108.206 16.0136 108.248 16.1838C109.375 20.8116 111.547 23.8701 114.3 27.7396C114.448 27.9473 114.596 28.155 114.746 28.3653C117.159 31.7642 117.381 37.303 117.577 42.1861C117.629 43.4351 117.677 44.6164 117.757 45.7302C118.065 49.9826 117.006 53.6568 115.184 54.6629C114.561 55.0083 113.539 55.2161 112.223 54.25C108.644 51.627 102.937 49.9125 96.5625 49.5496C90.6282 49.2092 88.2805 50.6033 83.1321 53.6543C82.3136 54.1373 81.3851 54.688 80.3789 55.2686C78.6419 56.2698 77.3279 56.7553 76.3068 56.7553ZM75.3106 24.0779C74.795 25.2892 72.9003 30.5528 73.3459 41.3902C73.3934 42.514 73.431 43.5652 73.4685 44.5814C73.6913 50.811 73.8389 54.9282 75.4483 55.8193C76.3193 56.3023 77.7684 55.9269 80.011 54.6354C81.0172 54.0547 81.9407 53.5066 82.7567 53.0236C87.8775 49.9901 90.448 48.4658 96.605 48.8187C100.004 49.014 103.165 49.5621 106.001 50.4506C108.641 51.2791 110.881 52.3603 112.656 53.6618C113.462 54.2525 114.193 54.3751 114.828 54.0222C116.383 53.1637 117.306 49.6972 117.023 45.7828C116.941 44.659 116.893 43.4726 116.843 42.2187C116.651 37.4357 116.433 32.0145 114.148 28.7933C113.998 28.583 113.85 28.3728 113.702 28.1675C110.962 24.3156 108.784 21.2546 107.608 16.6543C106.056 16.7469 98.6148 17.3551 90.6407 20.7565L90.1702 20.9568C81.6203 24.6035 79.6856 25.4294 75.3106 24.0779Z" fill="black"/>
<path d="M94.0579 37.0752C94.0579 37.0752 92.7389 43.1672 91.9355 45.0569C91.1346 46.9465 90.5314 51.0062 95.85 49.1616" fill="white"/>
<path d="M93.5369 49.996C92.726 49.996 92.1028 49.7657 91.6698 49.3027C90.6862 48.2515 91.0165 46.2817 91.5972 44.9127C92.3781 43.0781 93.6846 37.0587 93.6971 36.9986C93.7397 36.8009 93.9349 36.6757 94.1326 36.7183C94.3328 36.7608 94.458 36.956 94.4154 37.1538C94.3604 37.4041 93.0789 43.3008 92.273 45.2005C91.7549 46.4169 91.5146 48.0638 92.2054 48.8021C92.7761 49.4128 93.9924 49.4153 95.7269 48.8146C95.9197 48.7471 96.1299 48.8497 96.195 49.0399C96.26 49.2326 96.1599 49.4404 95.9672 49.5079C95.0311 49.8333 94.2202 49.996 93.5369 49.996Z" fill="black"/>
<path d="M95.8063 59.5835C93.764 59.5835 91.7116 58.8752 90.1273 57.5937C89.9696 57.4661 89.9471 57.2333 90.0748 57.0781C90.2024 56.9204 90.4327 56.8954 90.5903 57.0231C92.3399 58.4422 94.7151 59.0929 96.9451 58.7676C99.1752 58.4422 101.265 57.1357 102.534 55.276C102.649 55.1084 102.877 55.0658 103.045 55.1809C103.212 55.2936 103.255 55.5238 103.14 55.689C101.756 57.7163 99.4805 59.138 97.0528 59.4934C96.6398 59.5535 96.2218 59.5835 95.8063 59.5835Z" fill="white"/>
<path d="M73.0176 42.7066C72.935 42.7066 72.8499 42.6765 72.7798 42.619C72.6247 42.4888 72.6071 42.256 72.7373 42.1009L78.609 35.1329C78.7417 34.9777 78.972 34.9577 79.1271 35.0878C79.2823 35.218 79.3023 35.4507 79.1722 35.6059L73.2979 42.5764C73.2254 42.6615 73.1227 42.7066 73.0176 42.7066Z" fill="black"/>
<path d="M85.1002 44.4642C81.3034 44.4642 78.2148 41.3756 78.2148 37.5788C78.2148 33.7819 81.3034 30.6934 85.1002 30.6934C88.8971 30.6934 91.9856 33.7819 91.9856 37.5788C91.9881 41.3731 88.8971 44.4642 85.1002 44.4642ZM85.1002 31.4267C81.7089 31.4267 78.9482 34.1849 78.9482 37.5788C78.9482 40.9701 81.7089 43.7308 85.1002 43.7308C88.4941 43.7308 91.2523 40.9701 91.2523 37.5788C91.2523 34.1849 88.4941 31.4267 85.1002 31.4267Z" fill="black"/>
<path d="M117.177 41.7032C117.076 41.7032 116.979 41.6631 116.906 41.5855L110.867 35.0155C110.729 34.8678 110.739 34.6351 110.887 34.4974C111.037 34.3598 111.27 34.3698 111.405 34.5199L117.447 41.0875C117.585 41.2376 117.575 41.4704 117.424 41.6056C117.354 41.6706 117.264 41.7032 117.177 41.7032Z" fill="black"/>
<path d="M105.253 44.4642C101.456 44.4642 98.3672 41.3756 98.3672 37.5788C98.3672 33.7819 101.456 30.6934 105.253 30.6934C109.049 30.6934 112.138 33.7819 112.138 37.5788C112.138 41.3731 109.049 44.4642 105.253 44.4642ZM105.253 31.4267C101.859 31.4267 99.1005 34.1849 99.1005 37.5788C99.1005 40.9701 101.859 43.7308 105.253 43.7308C108.644 43.7308 111.405 40.9701 111.405 37.5788C111.405 34.1849 108.644 31.4267 105.253 31.4267Z" fill="black"/>
<path d="M99.1405 35.736C99.0755 35.736 99.0079 35.7185 98.9478 35.6835C97.2108 34.6172 95.4213 34.2894 93.6342 34.7023C92.2902 35.0152 91.4442 35.6534 91.4367 35.6609C91.2765 35.7836 91.0463 35.7535 90.9211 35.5933C90.7985 35.4332 90.8285 35.2029 90.9887 35.0803C91.0262 35.0502 91.9423 34.3494 93.4315 33.9965C94.8031 33.6711 96.9405 33.5911 99.3308 35.0577C99.5035 35.1629 99.5585 35.3881 99.4534 35.5608C99.3833 35.6734 99.2632 35.736 99.1405 35.736Z" fill="black"/>
<path d="M88.4801 34.5447C88.4801 34.7149 88.4475 34.8776 88.3824 35.0353C88.3174 35.193 88.2248 35.3306 88.1046 35.4533C87.9845 35.5734 87.8443 35.666 87.6866 35.7311C87.529 35.7962 87.3663 35.8287 87.1961 35.8287C87.0259 35.8287 86.8607 35.7962 86.7055 35.7311C86.5478 35.666 86.4077 35.5734 86.2875 35.4533C86.1674 35.3306 86.0748 35.193 86.0097 35.0353C85.9446 34.8776 85.9121 34.7149 85.9121 34.5447C85.9121 34.3745 85.9446 34.2093 86.0097 34.0516C86.0748 33.8965 86.1674 33.7563 86.2875 33.6362C86.4077 33.516 86.5478 33.4234 86.7055 33.3584C86.8607 33.2933 87.0259 33.2607 87.1961 33.2607C87.3663 33.2607 87.529 33.2933 87.6866 33.3584C87.8443 33.4234 87.9845 33.516 88.1046 33.6362C88.2248 33.7563 88.3174 33.8965 88.3824 34.0516C88.4475 34.2093 88.4801 34.3745 88.4801 34.5447Z" fill="black"/>
<path d="M87.1968 36.1948C86.2858 36.1948 85.5449 35.454 85.5449 34.5454C85.5449 33.6344 86.2858 32.8936 87.1968 32.8936C88.1079 32.8936 88.8487 33.6344 88.8487 34.5454C88.8487 35.454 88.1079 36.1948 87.1968 36.1948ZM87.1968 33.6269C86.6912 33.6269 86.2808 34.0399 86.2808 34.5454C86.2808 35.0485 86.6912 35.4615 87.1968 35.4615C87.7024 35.4615 88.1129 35.0485 88.1129 34.5454C88.1129 34.0399 87.7024 33.6269 87.1968 33.6269Z" fill="black"/>
<path d="M108.607 34.5447C108.607 34.7149 108.574 34.8776 108.509 35.0353C108.444 35.193 108.352 35.3306 108.232 35.4533C108.111 35.5734 107.974 35.666 107.816 35.7311C107.658 35.7962 107.493 35.8287 107.323 35.8287C107.153 35.8287 106.99 35.7962 106.832 35.7311C106.675 35.666 106.537 35.5734 106.417 35.4533C106.297 35.3306 106.202 35.193 106.137 35.0353C106.072 34.8776 106.039 34.7149 106.039 34.5447C106.039 34.3745 106.072 34.2093 106.137 34.0516C106.202 33.8965 106.297 33.7563 106.417 33.6362C106.537 33.516 106.675 33.4234 106.832 33.3584C106.99 33.2933 107.153 33.2607 107.323 33.2607C107.493 33.2607 107.658 33.2933 107.816 33.3584C107.974 33.4234 108.111 33.516 108.232 33.6362C108.352 33.7563 108.444 33.8965 108.509 34.0516C108.574 34.2093 108.607 34.3745 108.607 34.5447Z" fill="black"/>
<path d="M107.323 36.1948C106.415 36.1948 105.674 35.454 105.674 34.5454C105.674 33.6344 106.415 32.8936 107.323 32.8936C108.234 32.8936 108.975 33.6344 108.975 34.5454C108.975 35.454 108.234 36.1948 107.323 36.1948ZM107.323 33.6269C106.82 33.6269 106.407 34.0399 106.407 34.5454C106.407 35.0485 106.82 35.4615 107.323 35.4615C107.829 35.4615 108.242 35.0485 108.242 34.5454C108.242 34.0399 107.829 33.6269 107.323 33.6269Z" fill="black"/>
<path d="M76.682 34.5324C76.5994 34.5324 76.5168 34.5048 76.4492 34.4473C76.2941 34.3196 76.2715 34.0894 76.3992 33.9317C76.4442 33.8766 77.5205 32.5876 79.733 31.2912C81.7628 30.0998 85.1818 28.6807 89.9272 28.6807C90.1299 28.6807 90.2951 28.8459 90.2951 29.0486C90.2951 29.2488 90.1299 29.414 89.9272 29.414C81.1722 29.414 77.0074 34.3472 76.9648 34.3972C76.8922 34.4873 76.7871 34.5324 76.682 34.5324Z" fill="black"/>
<path d="M112.894 32.4226C112.802 32.4226 112.709 32.3875 112.639 32.3175C112.626 32.3049 111.453 31.1736 109.223 30.17C107.168 29.2439 103.764 28.2428 99.2236 28.7208C99.0209 28.7409 98.8407 28.5957 98.8206 28.3955C98.7981 28.1927 98.9458 28.0125 99.146 27.99C103.869 27.4919 107.415 28.5456 109.558 29.5167C111.896 30.573 113.102 31.7443 113.152 31.7944C113.297 31.9345 113.297 32.1673 113.157 32.3125C113.084 32.385 112.989 32.4226 112.894 32.4226Z" fill="black"/>
<path d="M179.506 159.118C171.704 113.055 166.551 108.815 160.862 104.575C155.115 100.293 116.541 90.3916 116.541 90.3916H80.5097C80.5097 90.3916 41.9354 100.293 36.1888 104.575C30.4998 108.815 25.3489 113.055 17.5449 159.118H179.506Z" fill="#F3B64C"/>
<path d="M17.5441 159.491C25.3956 113.173 30.5641 109.319 36.0353 105.241C41.5692 101.119 78.6668 91.5232 80.1835 91.1328H116.12C117.636 91.5232 154.734 101.117 160.268 105.241C165.739 109.319 170.908 113.173 178.759 159.491H179.502C175.956 138.54 172.755 124.896 169.446 116.619C166.34 108.853 163.477 106.718 160.706 104.656C154.969 100.378 117.837 90.8174 116.257 90.4119C116.227 90.4044 116.197 90.3994 116.167 90.3994H80.1359C80.1059 90.3994 80.0759 90.4044 80.0458 90.4119C78.4665 90.8149 41.3339 100.378 35.5973 104.656C32.8267 106.718 29.9634 108.853 26.8573 116.619C23.5485 124.896 20.3448 138.54 16.8008 159.491H17.5441Z" fill="black"/>
<path d="M39.8325 159.117H40.5658C40.283 151.934 39.6348 142.321 39.1242 135.318C38.6686 129.075 38.2857 124.393 38.2807 124.348C38.2657 124.145 38.088 123.995 37.8852 124.012C37.685 124.027 37.5348 124.205 37.5499 124.408C37.5549 124.453 37.9378 129.133 38.3933 135.37C38.9014 142.358 39.5497 151.947 39.8325 159.117Z" fill="black"/>
<path d="M157.575 159.118H158.311C158.571 143.903 157.903 121.652 157.896 121.422C157.888 121.219 157.721 121.062 157.518 121.067C157.315 121.074 157.155 121.242 157.162 121.444C157.17 121.675 157.836 143.92 157.575 159.118Z" fill="black"/>
<path d="M38.759 135.711C38.7064 135.711 38.6538 135.701 38.6038 135.678C38.4336 135.601 34.4065 133.703 32.4993 129.616C32.4142 129.431 32.4918 129.213 32.677 129.128C32.8597 129.043 33.0774 129.121 33.165 129.306C34.9546 133.143 38.8716 134.992 38.9116 135.01C39.0944 135.095 39.1769 135.313 39.0918 135.498C39.0293 135.633 38.8966 135.711 38.759 135.711Z" fill="black"/>
<path d="M96.7353 103.717C99.8714 103.747 103.008 103.587 106.003 103.187C111.089 102.506 116.586 100.726 120.052 96.7491C121.857 94.6742 117.709 92.1989 118.112 88.9226C118.513 85.6439 116.773 80.0249 113.026 84.0395C110.811 86.4123 106.832 86.9879 103.783 87.3784C99.3007 87.954 94.693 87.9665 90.2028 87.4409C87.0142 87.0655 82.7843 86.5249 80.4641 84.0395C76.7173 80.0249 74.9778 85.6439 75.3783 88.9226C75.7813 92.1989 71.6315 94.6742 73.4386 96.7491C76.9726 100.806 82.2011 102.481 87.3921 103.104C90.4131 103.464 93.5742 103.687 96.7353 103.717Z" fill="#F3B64C"/>
<path d="M97.4688 104.087C97.2236 104.087 96.9783 104.087 96.7305 104.085C93.6795 104.055 90.5209 103.847 87.3497 103.467C84.4464 103.119 81.8559 102.476 79.6534 101.552C77.0254 100.453 74.8404 98.9164 73.161 96.9892C72.0272 95.6852 72.8831 94.2436 73.7141 92.8495C74.4374 91.6331 75.1858 90.3741 75.0131 88.965C74.7478 86.795 75.366 83.3311 77.2131 82.4676C77.9414 82.1297 79.1403 82.0821 80.7296 83.7866C83.0072 86.2269 87.3622 86.7375 90.2456 87.0728C94.7582 87.6035 99.2984 87.5834 103.736 87.0128C106.454 86.6649 110.564 86.1393 112.759 83.7866C114.348 82.0821 115.55 82.1297 116.275 82.4676C118.125 83.3311 118.741 86.795 118.475 88.965C118.303 90.3741 119.051 91.6331 119.774 92.8495C120.605 94.2436 121.464 95.6852 120.328 96.9892C116.538 101.339 110.474 102.959 106.051 103.549C103.386 103.907 100.502 104.087 97.4688 104.087ZM78.0691 83.0132C77.8789 83.0132 77.6962 83.0532 77.5235 83.1333C76.1794 83.7615 75.4736 86.6849 75.7414 88.8774C75.9466 90.5368 75.0957 91.9635 74.3448 93.2249C73.4663 94.6991 72.9657 95.6477 73.7141 96.5087C76.715 99.9526 81.2027 101.99 87.4348 102.738C90.5809 103.116 93.712 103.321 96.738 103.352C100.007 103.382 103.108 103.204 105.954 102.823C110.251 102.248 116.135 100.686 119.774 96.5087C120.523 95.6477 120.022 94.6991 119.144 93.2249C118.393 91.9635 117.544 90.5368 117.747 88.8774C118.015 86.6849 117.309 83.7615 115.965 83.1333C115.229 82.7904 114.331 83.1784 113.295 84.2872C110.919 86.8326 106.652 87.3807 103.829 87.7411C99.331 88.3193 94.7332 88.3393 90.158 87.8037C87.1695 87.4533 82.6543 86.9227 80.194 84.2872C79.4031 83.4387 78.6898 83.0132 78.0691 83.0132Z" fill="black"/>
<path d="M8.63579 160.75C8.59074 164.566 7.54704 164.657 5.41209 165.085C3.11445 165.543 1.38998 163.36 0.586555 160.717C-0.216867 158.077 1.16222 155.318 4.49354 155.318C6.51335 155.318 7.60461 156.975 8.15023 158.279C8.50314 159.123 8.62828 159.821 8.62828 159.821C8.63579 160.154 8.63829 160.462 8.63579 160.75Z" fill="white"/>
<path d="M4.80747 165.513C3.86138 165.513 2.96536 165.11 2.18196 164.324C1.35351 163.498 0.682737 162.289 0.237226 160.825C-0.223302 159.313 -0.00555264 157.744 0.822898 156.625C1.62131 155.546 2.92531 154.953 4.49461 154.953C6.69463 154.953 7.881 156.685 8.48919 158.139C8.85461 159.01 8.98476 159.729 8.98977 159.759C8.99227 159.776 8.99477 159.796 8.99477 159.814C9.00228 160.142 9.00478 160.457 9.00228 160.755C8.97976 162.637 8.71946 163.723 8.12878 164.381C7.54311 165.035 6.71716 165.2 5.67096 165.408L5.48324 165.445C5.25548 165.49 5.03022 165.513 4.80747 165.513ZM4.49461 155.686C3.14556 155.686 2.07934 156.162 1.41358 157.063C0.722783 157.994 0.545079 159.321 0.93803 160.612C1.63133 162.887 3.15057 165.162 5.34058 164.724L5.5308 164.687C6.47688 164.499 7.16267 164.361 7.58315 163.891C8.03868 163.383 8.25142 162.412 8.26894 160.745C8.27144 160.467 8.27144 160.169 8.26394 159.861C8.2364 159.731 8.10876 159.128 7.81342 158.42C7.29032 157.173 6.29167 155.686 4.49461 155.686Z" fill="black"/>
<path d="M14.9241 168.188C14.3159 168.939 13.5225 169.106 12.5914 169.152C10.3514 169.257 8.1113 167.84 8.63691 165.685C8.97479 164.301 8.87718 162.419 8.63691 160.749C8.63941 160.462 8.63691 160.154 8.6294 159.821C8.6294 159.821 8.50425 159.125 8.15135 158.284C8.15135 158.282 8.15135 158.279 8.14885 158.279C7.66829 156.389 6.47693 153.709 10.8094 153.108C12.7967 152.83 14.0957 154.302 14.9216 155.979C15.8977 157.961 16.2106 160.231 16.2106 160.231C16.2607 164.904 15.7801 167.127 14.9241 168.188Z" fill="white"/>
<path d="M12.3604 169.525C10.9463 169.525 9.57971 168.96 8.83135 168.051C8.25069 167.348 8.06047 166.499 8.28072 165.601C8.55604 164.462 8.55353 162.758 8.27321 160.803C8.27071 160.783 8.26821 160.765 8.26821 160.745C8.27071 160.468 8.26821 160.17 8.2607 159.862C8.23567 159.734 8.10802 159.131 7.81268 158.425C7.80768 158.415 7.80518 158.405 7.80267 158.398C7.80017 158.388 7.79767 158.38 7.79266 158.37C7.75011 158.205 7.70506 158.035 7.6525 157.852C7.34214 156.733 6.9542 155.339 7.66502 154.253C8.18812 153.454 9.20178 152.961 10.7586 152.746C12.5832 152.491 14.1349 153.555 15.2487 155.817C16.2424 157.829 16.5602 160.087 16.5727 160.182C16.5752 160.197 16.5752 160.212 16.5752 160.227C16.6228 164.662 16.2023 167.188 15.2087 168.419C14.4878 169.31 13.5342 169.475 12.6082 169.518C12.5256 169.523 12.443 169.525 12.3604 169.525ZM9.00155 160.725C9.20929 162.169 9.37448 164.209 8.99154 165.774C8.82635 166.449 8.964 167.058 9.397 167.583C10.0477 168.374 11.2942 168.847 12.5731 168.787C13.4692 168.742 14.1274 168.589 14.6355 167.959C15.5015 166.885 15.8844 164.44 15.8419 160.26C15.8069 160.027 15.479 157.945 14.5905 156.14C13.6168 154.16 12.3604 153.264 10.8587 153.472C9.54217 153.655 8.67367 154.053 8.28072 154.656C7.75011 155.464 8.07298 156.628 8.36081 157.657C8.40837 157.832 8.45592 158 8.49847 158.165C8.85638 159.026 8.98403 159.729 8.98903 159.759C8.99154 159.777 8.99404 159.794 8.99404 159.814C9.00155 160.13 9.00405 160.437 9.00155 160.725Z" fill="black"/>
<path d="M8.6379 160.75C8.50275 159.821 8.32504 158.958 8.15234 158.284C8.15234 158.282 8.15234 158.282 8.15234 158.279C8.50525 159.125 8.63039 159.821 8.63039 159.821C8.6379 160.154 8.6404 160.462 8.6379 160.75Z" fill="white"/>
<path d="M8.63712 161.118C8.45441 161.118 8.29924 160.985 8.27421 160.802C8.15407 159.976 7.98638 159.12 7.79866 158.385C7.7461 158.212 7.8312 158.022 7.99889 157.944C8.1791 157.864 8.39434 157.939 8.47944 158.119C8.48445 158.124 8.48695 158.132 8.48945 158.139C8.85487 159.01 8.98502 159.729 8.99003 159.759C8.99253 159.776 8.99503 159.796 8.99503 159.814C9.00254 160.142 9.00505 160.457 9.00254 160.755C9.00004 160.945 8.85237 161.103 8.65965 161.115C8.65214 161.115 8.64463 161.118 8.63712 161.118Z" fill="black"/>
<path d="M22.8159 160.232C22.5932 162.705 22.2528 164.494 21.7247 165.871V165.874C21.0789 167.55 20.1529 168.617 18.8113 169.565C16.4261 171.25 14.9869 168.319 14.9244 168.189C15.7804 167.127 16.2609 164.905 16.2109 160.235C16.2109 160.235 15.898 157.964 14.9219 155.98C15.1772 151.632 15.6577 150.526 19.1117 150.266C20.6109 150.153 21.5069 152.013 22.04 154.153C22.7358 156.951 22.8159 160.232 22.8159 160.232Z" fill="white"/>
<path d="M17.3688 170.453C17.1736 170.453 16.9808 170.428 16.7881 170.378C15.419 170.02 14.6732 168.516 14.5906 168.346C14.5305 168.218 14.548 168.068 14.6381 167.958C15.5016 166.887 15.8871 164.439 15.842 160.261C15.8095 160.026 15.4791 157.944 14.5906 156.142C14.5631 156.084 14.5505 156.022 14.553 155.957C14.6857 153.704 14.8784 152.307 15.5116 151.381C16.24 150.318 17.4664 150.02 19.0832 149.9C20.5649 149.789 21.6762 151.189 22.3945 154.062C23.0928 156.868 23.1779 160.089 23.1804 160.224C23.1804 160.236 23.1804 160.251 23.1804 160.264C22.9527 162.784 22.5998 164.604 22.0692 165.991C22.0692 165.996 22.0667 165.998 22.0667 166.003C21.4334 167.65 20.5224 168.804 19.0207 169.862C18.4675 170.255 17.9119 170.453 17.3688 170.453ZM15.3565 168.218C15.5792 168.601 16.1524 169.452 16.9733 169.667C17.4839 169.8 18.0295 169.665 18.5977 169.264C19.9693 168.296 20.8002 167.244 21.3759 165.753C21.3784 165.748 21.3784 165.743 21.3809 165.738C21.889 164.421 22.2269 162.667 22.4471 160.219C22.4396 159.941 22.332 156.85 21.6837 154.24C21.2582 152.538 20.4723 150.53 19.1383 150.63C16.0748 150.861 15.5542 151.554 15.2939 155.904C16.25 157.894 16.5604 160.089 16.5729 160.181C16.5754 160.196 16.5754 160.214 16.5754 160.229C16.6229 164.434 16.2425 166.924 15.3565 168.218Z" fill="black"/>
<path d="M28.7877 160.547C28.635 162.016 28.5975 164.517 28.1745 166.549C27.8066 168.324 27.1458 169.74 25.8594 169.793C23.6018 169.888 22.075 168.749 21.7246 165.871C22.2527 164.494 22.5931 162.705 22.8159 160.232C22.8159 160.232 22.7358 156.948 22.04 154.15C22.7883 152.831 23.9872 151.529 25.8018 151.529C27.9518 151.529 28.7076 153.669 28.9053 155.997C29.048 157.651 28.9078 159.401 28.7877 160.547Z" fill="white"/>
<path d="M25.6078 170.165C23.165 170.165 21.6984 168.701 21.358 165.918C21.358 165.903 21.3555 165.888 21.3555 165.873C21.3555 165.828 21.363 165.783 21.3805 165.74C21.8886 164.421 22.2265 162.667 22.4467 160.222C22.4392 159.941 22.3316 156.853 21.6833 154.24C21.6608 154.15 21.6733 154.052 21.7184 153.969C22.7621 152.132 24.1737 151.161 25.8006 151.161C27.1972 151.161 28.9317 151.995 29.2695 155.967C29.3797 157.253 29.3421 158.762 29.1519 160.584C29.1069 161.027 29.0693 161.583 29.0318 162.169C28.9417 163.515 28.8315 165.19 28.5337 166.621C28.0507 168.949 27.1822 170.105 25.8757 170.16C25.783 170.163 25.6954 170.165 25.6078 170.165ZM22.0988 165.916C22.4242 168.371 23.6506 169.517 25.8431 169.427C26.7642 169.387 27.4099 168.423 27.8154 166.474C28.1007 165.09 28.2108 163.443 28.2984 162.121C28.3385 161.528 28.376 160.965 28.4236 160.509C28.6063 158.735 28.6438 157.268 28.5387 156.029C28.3034 153.286 27.3849 151.897 25.8006 151.897C24.469 151.897 23.3352 152.673 22.4292 154.207C23.095 156.978 23.1776 160.091 23.1801 160.224C23.1801 160.237 23.1801 160.252 23.1801 160.267C22.9573 162.739 22.6119 164.539 22.0988 165.916Z" fill="black"/>
<path d="M31.1442 167.324C29.9428 167.284 28.9492 166.976 28.1758 166.548C28.5988 164.516 28.6363 162.018 28.789 160.546C28.9091 159.403 29.0493 157.653 28.9066 155.999C29.5198 155.18 30.4033 154.529 31.6623 154.574C34.936 154.687 35.1638 157.738 35.2814 160.664C35.3941 163.59 34.5906 167.437 31.1442 167.324Z" fill="white"/>
<path d="M31.2928 167.693C31.2402 167.693 31.1852 167.693 31.1326 167.69C29.9638 167.653 28.91 167.375 27.9965 166.869C27.8563 166.792 27.7838 166.632 27.8163 166.474C28.1016 165.09 28.2117 163.446 28.2993 162.122C28.3394 161.528 28.3769 160.968 28.4245 160.51C28.6097 158.735 28.6472 157.268 28.5396 156.032C28.5321 155.942 28.5571 155.852 28.6122 155.779C29.4256 154.693 30.4543 154.165 31.6732 154.207C35.3975 154.338 35.5427 157.987 35.6478 160.65C35.6953 161.891 35.6303 164.955 33.9709 166.622C33.2625 167.333 32.364 167.693 31.2928 167.693ZM31.1551 166.957C32.0837 166.987 32.8571 166.702 33.4503 166.104C34.9044 164.642 34.957 161.824 34.9119 160.677C34.7868 157.486 34.4664 155.038 31.6482 154.941C30.7246 154.908 29.9287 155.301 29.283 156.11C29.3781 157.366 29.3355 158.83 29.1528 160.585C29.1078 161.028 29.0702 161.583 29.0302 162.169C28.9476 163.431 28.845 164.982 28.5872 166.351C29.343 166.722 30.204 166.925 31.1551 166.957Z" fill="black"/>
<mask id="mask0_23423_3481" style="mask-type:luminance" maskUnits="userSpaceOnUse" x="183" y="154" width="9" height="11">
<path d="M183.062 154.681H192V164.932H183.062V154.681Z" fill="white"/>
</mask>
<g mask="url(#mask0_23423_3481)">
<path d="M183.134 160.152C183.179 163.969 184.223 164.059 186.357 164.487C188.655 164.945 190.377 162.762 191.183 160.122C191.986 157.479 190.607 154.721 187.276 154.721C185.256 154.721 184.165 156.378 183.619 157.682C183.266 158.528 183.141 159.223 183.141 159.223C183.134 159.556 183.131 159.864 183.134 160.152Z" fill="white"/>
</g>
<mask id="mask1_23423_3481" style="mask-type:luminance" maskUnits="userSpaceOnUse" x="182" y="154" width="10" height="11">
<path d="M182.418 154.039H191.996V164.932H182.418V154.039Z" fill="white"/>
</mask>
<g mask="url(#mask1_23423_3481)">
<path d="M186.963 164.915C186.74 164.915 186.515 164.892 186.285 164.845L186.097 164.807C185.051 164.599 184.225 164.437 183.642 163.783C183.051 163.123 182.788 162.039 182.768 160.154C182.763 159.859 182.766 159.541 182.773 159.213C182.776 159.196 182.776 159.176 182.781 159.158C182.786 159.128 182.916 158.412 183.281 157.539C183.89 156.085 185.076 154.353 187.276 154.353C188.843 154.353 190.147 154.948 190.948 156.027C191.774 157.143 191.994 158.713 191.533 160.227C191.088 161.688 190.417 162.897 189.589 163.723C188.805 164.512 187.907 164.915 186.963 164.915ZM183.502 160.147C183.519 161.814 183.732 162.785 184.187 163.295C184.608 163.763 185.294 163.901 186.24 164.089L186.43 164.126C188.617 164.564 190.139 162.289 190.83 160.014C191.223 158.723 191.048 157.396 190.357 156.465C189.689 155.564 188.625 155.088 187.276 155.088C185.479 155.088 184.48 156.575 183.957 157.824C183.662 158.53 183.532 159.133 183.507 159.263C183.499 159.571 183.499 159.869 183.502 160.147Z" fill="black"/>
</g>
<path d="M176.847 167.591C177.455 168.344 178.248 168.509 179.179 168.554C181.419 168.659 183.659 167.243 183.134 165.09C182.796 163.704 182.894 161.824 183.134 160.152C183.131 159.864 183.134 159.557 183.141 159.224C183.141 159.224 183.267 158.53 183.619 157.687C183.619 157.684 183.619 157.684 183.619 157.682C184.102 155.792 185.294 153.114 180.959 152.511C178.974 152.236 177.675 153.705 176.849 155.382C175.873 157.364 175.56 159.634 175.56 159.634C175.51 164.307 175.991 166.53 176.847 167.591Z" fill="white"/>
<path d="M179.41 168.927C179.327 168.927 179.245 168.925 179.162 168.92C178.236 168.877 177.283 168.714 176.562 167.821C175.568 166.589 175.148 164.064 175.193 159.631C175.193 159.616 175.195 159.601 175.198 159.584C175.21 159.489 175.528 157.234 176.522 155.219C177.636 152.956 179.187 151.895 181.012 152.148C182.569 152.366 183.582 152.856 184.105 153.655C184.816 154.743 184.428 156.137 184.118 157.256C184.065 157.436 184.02 157.607 183.975 157.774C183.973 157.782 183.97 157.792 183.968 157.799C183.965 157.809 183.963 157.819 183.958 157.829C183.662 158.533 183.535 159.136 183.51 159.264C183.502 159.571 183.5 159.869 183.502 160.15C183.502 160.167 183.5 160.187 183.497 160.205C183.214 162.159 183.212 163.864 183.49 165.003C183.71 165.901 183.52 166.75 182.939 167.453C182.191 168.362 180.824 168.927 179.41 168.927ZM175.929 159.664C175.884 163.841 176.266 166.289 177.132 167.36C177.643 167.991 178.301 168.146 179.197 168.189C180.476 168.249 181.723 167.776 182.373 166.985C182.806 166.462 182.942 165.851 182.776 165.175C182.396 163.611 182.561 161.574 182.766 160.127C182.764 159.839 182.766 159.534 182.774 159.216C182.776 159.198 182.776 159.178 182.781 159.161C182.786 159.131 182.914 158.428 183.272 157.569C183.315 157.404 183.36 157.236 183.41 157.059C183.695 156.032 184.02 154.866 183.49 154.058C183.094 153.457 182.228 153.059 180.909 152.876C179.408 152.666 178.154 153.565 177.177 155.544C176.291 157.346 175.961 159.429 175.929 159.664Z" fill="black"/>
<path d="M183.134 160.152C183.269 159.223 183.447 158.362 183.619 157.687C183.619 157.684 183.619 157.684 183.619 157.682C183.266 158.528 183.141 159.226 183.141 159.226C183.134 159.556 183.131 159.864 183.134 160.152Z" fill="white"/>
<path d="M183.136 160.52C183.128 160.52 183.121 160.52 183.111 160.518C182.92 160.505 182.77 160.347 182.77 160.157C182.765 159.859 182.768 159.544 182.775 159.216C182.778 159.196 182.778 159.178 182.783 159.161C182.788 159.131 182.918 158.413 183.283 157.539C183.286 157.534 183.288 157.527 183.291 157.522C183.378 157.341 183.591 157.266 183.774 157.346C183.942 157.424 184.027 157.614 183.972 157.787C183.786 158.52 183.619 159.379 183.499 160.205C183.473 160.385 183.318 160.52 183.136 160.52Z" fill="black"/>
<path d="M168.955 159.634C169.178 162.107 169.518 163.896 170.046 165.275C170.692 166.952 171.618 168.018 172.96 168.967C175.345 170.651 176.784 167.721 176.847 167.59C175.991 166.529 175.51 164.307 175.56 159.636C175.56 159.636 175.871 157.366 176.849 155.381C176.594 151.036 176.113 149.928 172.659 149.67C171.16 149.557 170.264 151.414 169.731 153.554C169.035 156.353 168.955 159.634 168.955 159.634Z" fill="white"/>
<path d="M174.401 169.856C173.855 169.856 173.302 169.658 172.746 169.265C171.247 168.206 170.336 167.052 169.703 165.405C169.703 165.4 169.7 165.398 169.7 165.393C169.17 164.006 168.817 162.187 168.589 159.666C168.589 159.654 168.587 159.639 168.589 159.626C168.592 159.489 168.677 156.27 169.375 153.464C170.091 150.591 171.207 149.192 172.686 149.302C174.303 149.422 175.529 149.722 176.255 150.784C176.891 151.71 177.084 153.106 177.214 155.359C177.219 155.424 177.206 155.487 177.179 155.544C176.29 157.346 175.962 159.429 175.927 159.664C175.882 163.844 176.265 166.289 177.131 167.36C177.221 167.47 177.239 167.62 177.179 167.748C177.096 167.918 176.348 169.423 174.981 169.78C174.791 169.83 174.596 169.856 174.401 169.856ZM170.394 165.155C170.969 166.649 171.8 167.698 173.169 168.667C173.737 169.067 174.286 169.205 174.796 169.07C175.617 168.854 176.19 168.006 176.413 167.623C175.524 166.326 175.147 163.839 175.192 159.631C175.192 159.616 175.194 159.601 175.197 159.584C175.209 159.491 175.517 157.299 176.476 155.306C176.213 150.956 175.695 150.263 172.631 150.033C171.295 149.933 170.509 151.94 170.086 153.642C169.435 156.257 169.33 159.343 169.32 159.624C169.543 162.069 169.88 163.824 170.389 165.143C170.391 165.148 170.391 165.15 170.394 165.155Z" fill="black"/>
<path d="M162.984 159.949C163.137 161.418 163.175 163.918 163.598 165.95C163.966 167.725 164.626 169.142 165.913 169.194C168.17 169.289 169.697 168.15 170.048 165.272C169.519 163.896 169.179 162.106 168.956 159.633C168.956 159.633 169.036 156.349 169.732 153.551C168.984 152.232 167.785 150.931 165.97 150.931C163.82 150.931 163.065 153.071 162.867 155.398C162.724 157.053 162.864 158.805 162.984 159.949Z" fill="white"/>
<path d="M166.16 169.567C166.075 169.567 165.987 169.565 165.897 169.562C164.591 169.507 163.72 168.351 163.237 166.026C162.939 164.592 162.829 162.917 162.739 161.573C162.701 160.985 162.663 160.432 162.618 159.986C162.428 158.164 162.391 156.655 162.501 155.368C162.841 151.399 164.573 150.565 165.97 150.565C167.599 150.565 169.011 151.537 170.052 153.374C170.1 153.454 170.112 153.551 170.089 153.641C169.439 156.254 169.331 159.343 169.324 159.623C169.544 162.071 169.884 163.823 170.39 165.142C170.405 165.185 170.415 165.23 170.415 165.275C170.415 165.287 170.415 165.305 170.412 165.32C170.072 168.103 168.603 169.567 166.16 169.567ZM163.347 159.911C163.394 160.367 163.432 160.93 163.472 161.523C163.56 162.845 163.667 164.491 163.955 165.875C164.36 167.823 165.006 168.789 165.927 168.829C168.122 168.919 169.346 167.77 169.672 165.317C169.158 163.941 168.813 162.141 168.59 159.666C168.59 159.653 168.59 159.638 168.59 159.626C168.593 159.493 168.675 156.38 169.341 153.609C168.438 152.075 167.301 151.299 165.97 151.299C164.388 151.299 163.467 152.688 163.232 155.431C163.127 156.67 163.164 158.134 163.347 159.911Z" fill="black"/>
<path d="M160.628 166.726C161.83 166.684 162.823 166.379 163.597 165.951C163.174 163.918 163.136 161.418 162.983 159.949C162.863 158.805 162.723 157.055 162.866 155.401C162.252 154.583 161.369 153.932 160.11 153.977C156.836 154.089 156.606 157.14 156.491 160.066C156.376 162.992 157.182 166.839 160.628 166.726Z" fill="white"/>
<path d="M160.479 167.095C159.408 167.095 158.51 166.735 157.801 166.024C156.144 164.357 156.079 161.294 156.127 160.052C156.232 157.389 156.375 153.74 160.099 153.61C161.318 153.567 162.349 154.095 163.16 155.182C163.215 155.254 163.24 155.344 163.233 155.432C163.125 156.671 163.165 158.137 163.348 159.912C163.395 160.368 163.433 160.931 163.473 161.524C163.56 162.848 163.668 164.492 163.956 165.876C163.988 166.034 163.916 166.194 163.776 166.272C162.865 166.777 161.808 167.053 160.642 167.093C160.587 167.095 160.532 167.095 160.479 167.095ZM160.229 154.341C160.194 154.341 160.159 154.341 160.124 154.343C157.306 154.441 156.985 156.891 156.86 160.082C156.815 161.226 156.868 164.044 158.322 165.506C158.915 166.104 159.688 166.392 160.617 166.359C161.568 166.329 162.429 166.124 163.185 165.754C162.927 164.385 162.825 162.833 162.739 161.574C162.702 160.986 162.664 160.43 162.619 159.987C162.437 158.233 162.394 156.768 162.489 155.514C161.868 154.734 161.11 154.341 160.229 154.341Z" fill="black"/>
<path d="M108.031 14.5942C107.984 14.5942 107.936 14.5717 107.909 14.5266C107.133 13.2927 106.605 11.8811 106.385 10.4419C106.372 10.3618 106.427 10.2867 106.507 10.2742C106.585 10.2617 106.66 10.3168 106.672 10.3969C106.888 11.796 107.401 13.1701 108.157 14.3689C108.199 14.439 108.179 14.5291 108.109 14.5717C108.087 14.5867 108.059 14.5942 108.031 14.5942Z" fill="white"/>
<path d="M81.426 17.8478C80.167 17.8478 78.8305 17.7077 77.9194 16.8091C77.8619 16.7541 77.8594 16.6615 77.9169 16.6014C77.9745 16.5438 78.0671 16.5438 78.1247 16.6014C79.0658 17.525 80.5525 17.575 81.8715 17.5475C83.3181 17.5174 84.9976 17.4549 86.5944 17.0669C88.439 16.6164 90.171 15.7379 91.8479 14.8894C93.0143 14.2962 94.2232 13.6855 95.4646 13.2175C97.2917 12.5292 98.7258 12.3866 99.9773 12.7745C100.055 12.797 100.097 12.8796 100.075 12.9572C100.05 13.0348 99.9697 13.0773 99.8897 13.0548C98.7058 12.6894 97.3317 12.8271 95.5697 13.4903C94.3408 13.9534 93.1419 14.5616 91.9806 15.1497C90.2886 16.0082 88.5416 16.8942 86.6645 17.3523C85.0376 17.7477 83.3407 17.8128 81.879 17.8428C81.7288 17.8428 81.5761 17.8478 81.426 17.8478Z" fill="white"/>
<path d="M81.556 12.514C79.9942 12.514 78.3323 12.3012 77.1184 11.245C77.0559 11.1925 77.0484 11.0999 77.1034 11.0373C77.156 10.9772 77.2486 10.9697 77.3086 11.0223C78.6202 12.1611 80.5173 12.2612 82.1993 12.2086C86.6143 12.0735 90.5914 11.1599 94.0228 9.49802C94.0954 9.46298 94.183 9.49302 94.2206 9.5656C94.2556 9.63818 94.2231 9.72578 94.1505 9.76333C90.6815 11.4428 86.6644 12.3638 82.2093 12.5015C81.994 12.509 81.7763 12.514 81.556 12.514Z" fill="white"/>
<path d="M118.232 28.5781C118.232 28.5781 118.23 28.5781 118.227 28.5781C118.147 28.5755 118.085 28.508 118.087 28.4279C118.172 25.92 116.683 23.6324 115.377 21.9229C115.114 21.5775 114.838 21.2271 114.571 20.8892C113.337 19.3249 112.063 17.7056 111.402 15.7984C111.377 15.7233 111.417 15.6382 111.492 15.6132C111.57 15.5856 111.652 15.6257 111.68 15.7033C112.323 17.5654 113.582 19.1622 114.801 20.7065C115.069 21.0469 115.344 21.3973 115.609 21.7452C116.946 23.4947 118.465 25.8374 118.377 28.4379C118.377 28.5155 118.312 28.5781 118.232 28.5781Z" fill="white"/>
</svg>
