<svg width="263" height="294" viewBox="0 0 263 294" fill="none" xmlns="http://www.w3.org/2000/svg">
<path d="M211.496 172.867L219.352 263.863C219.981 271.27 215.458 277.768 209.252 278.296L36.5752 293.11C30.4025 293.649 24.8247 288.015 24.2299 280.619L16.3738 189.612C16.2179 187.903 16.3507 186.181 16.7666 184.517C18.0011 179.433 21.7496 175.538 26.4408 175.19L199.117 160.365C203.797 159.961 208.096 163.114 210.239 167.895C210.93 169.472 211.355 171.152 211.496 172.867Z" fill="#B76080"/>
<path opacity="0.1" d="M211.496 172.867L219.352 263.863C219.981 271.27 215.458 277.768 209.252 278.296L36.5752 293.11C30.4025 293.649 24.8247 288.015 24.2299 280.619L16.3738 189.612C16.2179 187.903 16.3507 186.181 16.7666 184.517C18.0011 179.433 21.7496 175.538 26.4408 175.19L199.117 160.365C203.797 159.961 208.096 163.114 210.239 167.895C210.93 169.472 211.355 171.152 211.496 172.867Z" fill="black"/>
<path d="M219.23 156.594L230.521 249.924C231.43 257.511 227.008 264.357 220.678 265.12L43.5907 286.545C37.2609 287.308 31.324 281.719 30.4037 274.121L19.1134 180.802C18.8986 179.047 18.9744 177.269 19.3378 175.538C20.4601 170.275 24.1412 166.178 28.9559 165.595L206.043 144.181C210.858 143.598 215.437 146.684 217.76 151.532C218.525 153.127 219.022 154.837 219.23 156.594Z" fill="#B76080"/>
<path opacity="0.1" d="M217.76 151.532L137.437 205.616C133.506 208.303 128.986 210.005 124.259 210.577C119.531 211.149 114.736 210.576 110.277 208.904L19.3711 175.538C20.4934 170.275 24.1745 166.178 28.9892 165.595L206.076 144.181C210.857 143.598 215.436 146.684 217.76 151.532Z" fill="black"/>
<path d="M187.795 171.7L164.72 187.233L157.167 192.328L137.437 205.616C133.608 208.243 129.213 209.932 124.61 210.544C120.006 211.156 115.323 210.675 110.94 209.14L110.233 208.904L99.1669 204.842L74.2518 195.695L62.6024 191.419L49.4042 186.571L48.4502 163.238L46.3066 111.388L147.684 107.269L186.324 136.55L186.728 146.505L187.795 171.7Z" fill="#B76080"/>
<path opacity="0.7" d="M187.795 171.7L164.72 187.233L157.167 192.328L137.437 205.616C133.608 208.243 129.213 209.932 124.61 210.544C120.006 211.156 115.323 210.675 110.94 209.14L110.233 208.904L99.1669 204.842L74.2518 195.695L62.6024 191.419L49.4042 186.571L48.4502 163.238L46.3066 111.388L147.684 107.269L186.324 136.55L186.728 146.505L187.795 171.7Z" fill="#FAFAFA"/>
<g opacity="0.9">
<path d="M173.506 146.864L61.2762 151.42C60.6502 151.445 60.0393 151.224 59.5738 150.805C59.1083 150.386 58.8252 149.801 58.7847 149.176C58.7629 148.552 58.9851 147.944 59.4042 147.481C59.8232 147.018 60.4061 146.736 61.0293 146.696L173.259 142.139C173.885 142.114 174.496 142.335 174.961 142.755C175.427 143.174 175.71 143.758 175.75 144.384C175.775 145.009 175.554 145.618 175.134 146.082C174.715 146.545 174.13 146.826 173.506 146.864Z" fill="white"/>
<path d="M174.102 161.779L61.8719 166.336C61.2459 166.36 60.635 166.139 60.1695 165.72C59.7041 165.301 59.4209 164.716 59.3804 164.091C59.3585 163.466 59.5804 162.856 59.9991 162.392C60.4179 161.927 61.0008 161.643 61.625 161.6L173.855 157.043C174.48 157.021 175.089 157.243 175.554 157.662C176.019 158.08 176.303 158.663 176.346 159.288C176.365 159.912 176.142 160.52 175.724 160.984C175.306 161.448 174.725 161.733 174.102 161.779Z" fill="white"/>
<path d="M174.707 176.683L62.4777 181.24C61.8517 181.265 61.2408 181.044 60.7754 180.624C60.3099 180.205 60.0267 179.62 59.9862 178.995C59.9616 178.37 60.1828 177.761 60.6024 177.297C61.022 176.833 61.6066 176.553 62.2308 176.515L174.461 171.958C175.085 171.934 175.695 172.155 176.159 172.575C176.622 172.994 176.903 173.579 176.941 174.203C176.966 174.826 176.746 175.434 176.329 175.897C175.911 176.361 175.33 176.643 174.707 176.683Z" fill="white"/>
<path d="M164.719 187.233L157.166 192.328L74.251 195.695L62.6016 191.419C62.6985 191.407 62.7965 191.407 62.8934 191.419L164.719 187.233Z" fill="white"/>
<path d="M134.002 205.807V205.897C134.003 206.507 133.772 207.096 133.355 207.542C132.938 207.988 132.367 208.258 131.758 208.298L110.984 209.14L110.277 208.904L99.2109 204.842L131.567 203.517C132.191 203.508 132.794 203.742 133.248 204.169C133.703 204.596 133.973 205.184 134.002 205.807Z" fill="white"/>
</g>
<path opacity="0.1" d="M186.369 136.55L159.524 135.394L147.729 107.269L186.369 136.55Z" fill="#263238"/>
<path d="M186.369 136.55L160.321 132.094L147.729 107.269L186.369 136.55Z" fill="#B76080"/>
<path d="M238.006 27.7095C238.006 50.537 212.99 72.9718 209.241 72.9718C205.493 72.9718 180.477 50.5258 180.477 27.7095C180.477 12.4126 193.349 0 209.241 0C225.133 0 238.006 12.4126 238.006 27.7095Z" fill="#B76080"/>
<path opacity="0.1" d="M203.899 22.0193C198.691 27.7318 191.621 29.7743 188.108 26.5085C184.595 23.2426 185.965 16.0823 191.161 10.3698C196.357 4.65733 203.439 2.61474 206.963 5.81329C210.487 9.01184 209.106 16.3068 203.899 22.0193Z" fill="white"/>
<path opacity="0.1" d="M188.556 45.0156C187.872 43.3097 188.051 41.6487 188.96 41.2671C189.869 40.8855 191.205 41.9854 191.844 43.6913C192.484 45.3972 192.35 47.0582 191.44 47.4285C190.531 47.7989 189.241 46.7102 188.556 45.0156Z" fill="white"/>
<path d="M208.007 144.799C207.886 144.796 207.77 144.747 207.685 144.661C207.599 144.575 207.549 144.46 207.547 144.339C207.513 142.825 207.97 141.341 208.848 140.108C209.602 139.003 210.005 137.696 210.005 136.359C210.005 135.022 209.602 133.716 208.848 132.611C208.001 131.363 207.547 129.889 207.547 128.38C207.547 126.871 208.001 125.397 208.848 124.149C209.602 123.046 210.005 121.741 210.005 120.406C210.005 119.07 209.602 117.766 208.848 116.663C208 115.417 207.547 113.945 207.547 112.437C207.547 110.93 208 109.458 208.848 108.212C209.602 107.109 210.005 105.805 210.005 104.469C210.005 103.133 209.602 101.829 208.848 100.726C208 99.4804 207.547 98.008 207.547 96.5008C207.547 94.9936 208 93.5212 208.848 92.2754C209.602 91.1727 210.005 89.8681 210.005 88.5325C210.005 87.1968 209.602 85.8923 208.848 84.7896C208 83.5437 207.547 82.0714 207.547 80.5642C207.547 79.0569 208 77.5846 208.848 76.3387C209.617 75.2471 210.011 73.9358 209.971 72.6015C209.988 72.4904 210.045 72.3891 210.13 72.316C210.215 72.2428 210.324 72.2026 210.437 72.2026C210.549 72.2026 210.658 72.2428 210.743 72.316C210.829 72.3891 210.885 72.4904 210.902 72.6015C210.934 74.1116 210.477 75.5916 209.6 76.8213C208.834 77.9182 208.441 79.2323 208.478 80.5698C208.438 81.9041 208.832 83.2154 209.6 84.307C210.449 85.5529 210.902 87.0253 210.902 88.5325C210.902 90.0397 210.449 91.5121 209.6 92.7579C208.841 93.8583 208.434 95.1637 208.434 96.5008C208.434 97.8379 208.841 99.1433 209.6 100.244C210.449 101.49 210.902 102.962 210.902 104.469C210.902 105.976 210.449 107.449 209.6 108.695C208.841 109.795 208.434 111.1 208.434 112.437C208.434 113.775 208.841 115.08 209.6 116.18C210.449 117.426 210.902 118.899 210.902 120.406C210.902 121.913 210.449 123.385 209.6 124.631C208.84 125.733 208.432 127.041 208.432 128.38C208.432 129.719 208.84 131.026 209.6 132.128C210.448 133.376 210.901 134.85 210.901 136.359C210.901 137.868 210.448 139.342 209.6 140.59C208.83 141.685 208.437 143.001 208.478 144.339C208.478 144.4 208.466 144.461 208.442 144.517C208.418 144.574 208.383 144.625 208.339 144.668C208.295 144.711 208.243 144.745 208.186 144.767C208.129 144.79 208.068 144.8 208.007 144.799Z" fill="#263238"/>
<path d="M209.24 71.8945C208.353 71.8945 202.506 77.1693 202.506 82.5339H215.996C215.996 77.1693 210.16 71.8945 209.24 71.8945Z" fill="#B76080"/>
<path d="M210.565 72.0742H207.916C207.699 72.0742 207.523 72.2501 207.523 72.467V72.7476C207.523 72.9645 207.699 73.1404 207.916 73.1404H210.565C210.782 73.1404 210.958 72.9645 210.958 72.7476V72.467C210.958 72.2501 210.782 72.0742 210.565 72.0742Z" fill="#263238"/>
<path d="M57.529 49.0445C57.529 71.8608 32.5129 94.2955 28.7645 94.2955C25.016 94.2955 0 71.8496 0 49.0445C0 33.7363 12.8727 21.3237 28.7645 21.3237C44.6562 21.3237 57.529 33.7363 57.529 49.0445Z" fill="#263238"/>
<path opacity="0.1" d="M24.1009 44.2783C29.3058 38.5642 30.676 31.3368 27.1615 28.1354C23.6469 24.934 16.5783 26.971 11.3735 32.685C6.16859 38.3991 4.79835 45.6265 8.31294 48.8279C11.8275 52.0293 18.896 49.9924 24.1009 44.2783Z" fill="white"/>
<path opacity="0.1" d="M8.75343 67.2705C8.06883 65.5646 8.2484 63.9036 9.15746 63.522C10.0665 63.1404 11.4021 64.2403 12.0418 65.9462C12.6815 67.652 12.5468 69.313 11.6377 69.6946C10.7287 70.0762 9.43803 68.9763 8.75343 67.2705Z" fill="white"/>
<path d="M27.4853 166.122C27.3632 166.122 27.2462 166.074 27.1599 165.988C27.0736 165.901 27.0251 165.784 27.0251 165.662C26.9918 164.148 27.4484 162.664 28.327 161.431C29.0802 160.326 29.483 159.02 29.483 157.683C29.483 156.345 29.0802 155.039 28.327 153.934C27.4793 152.686 27.026 151.212 27.026 149.703C27.026 148.194 27.4793 146.72 28.327 145.472C29.0954 144.38 29.4892 143.069 29.4493 141.735C29.4868 140.397 29.0933 139.083 28.327 137.986C27.4788 136.74 27.0251 135.268 27.0251 133.761C27.0251 132.254 27.4788 130.781 28.327 129.535C29.0954 128.444 29.4892 127.133 29.4493 125.798C29.4868 124.461 29.0933 123.147 28.327 122.05C27.4788 120.804 27.0251 119.332 27.0251 117.824C27.0251 116.317 27.4788 114.845 28.327 113.599C29.0797 112.498 29.4825 111.195 29.4825 109.862C29.4825 108.528 29.0797 107.225 28.327 106.124C27.4788 104.878 27.0251 103.406 27.0251 101.899C27.0251 100.392 27.4788 98.9193 28.327 97.6735C29.0933 96.5766 29.4868 95.2625 29.4493 93.925C29.4521 93.8038 29.5015 93.6885 29.5872 93.6028C29.6729 93.5171 29.7883 93.4677 29.9094 93.4648C30.0315 93.4648 30.1485 93.5133 30.2348 93.5996C30.3211 93.6859 30.3696 93.8029 30.3696 93.925C30.4046 95.4373 29.9521 96.9207 29.0789 98.156C28.3187 99.2541 27.9115 100.558 27.9115 101.893C27.9115 103.229 28.3187 104.533 29.0789 105.631C29.9199 106.879 30.3692 108.35 30.3692 109.856C30.3692 111.361 29.9199 112.833 29.0789 114.081C28.3126 115.178 27.9192 116.492 27.9566 117.83C27.9168 119.164 28.3106 120.476 29.0789 121.567C29.9199 122.816 30.3692 124.287 30.3692 125.793C30.3692 127.298 29.9199 128.769 29.0789 130.018C28.3126 131.115 27.9192 132.429 27.9566 133.767C27.9168 135.101 28.3106 136.412 29.0789 137.504C29.9199 138.752 30.3692 140.224 30.3692 141.729C30.3692 143.235 29.9199 144.706 29.0789 145.955C28.3183 147.057 27.911 148.364 27.911 149.703C27.911 151.042 28.3183 152.35 29.0789 153.452C29.9209 154.702 30.3706 156.175 30.3706 157.683C30.3706 159.19 29.9209 160.663 29.0789 161.914C28.3112 163.01 27.9176 164.325 27.9566 165.662C27.9567 165.724 27.9444 165.784 27.9206 165.841C27.8967 165.898 27.8618 165.949 27.8179 165.992C27.774 166.035 27.7219 166.068 27.6648 166.091C27.6077 166.113 27.5466 166.124 27.4853 166.122Z" fill="#B76080"/>
<path d="M28.7201 93.229C27.8335 93.229 21.9863 98.4926 21.9863 103.857H35.4539C35.4763 98.4926 29.5955 93.229 28.7201 93.229Z" fill="#263238"/>
<path d="M30.0434 93.3975H27.3947C27.1778 93.3975 27.002 93.5733 27.002 93.7903V94.0708C27.002 94.2878 27.1778 94.4636 27.3947 94.4636H30.0434C30.2603 94.4636 30.4362 94.2878 30.4362 94.0708V93.7903C30.4362 93.5733 30.2603 93.3975 30.0434 93.3975Z" fill="#B76080"/>
<path d="M242.381 175.005C253.358 164.925 254.086 147.854 244.005 136.877C233.925 125.899 216.854 125.172 205.877 135.252C194.899 145.332 194.172 162.403 204.252 173.381C214.332 184.358 231.403 185.086 242.381 175.005Z" fill="#3AC6B4"/>
<path d="M236.5 147.25L221.375 162.375L214.5 155.5" stroke="#FDFDFD" stroke-width="4" stroke-linecap="round" stroke-linejoin="round"/>
</svg>
