<svg width="261" height="289" viewBox="0 0 261 289" fill="none" xmlns="http://www.w3.org/2000/svg">
<path d="M209.547 168.566L217.403 259.562C218.032 266.969 213.509 273.467 207.303 273.995L34.6259 288.809C28.4533 289.348 22.8755 283.714 22.2807 276.318L14.4246 185.311C14.2687 183.602 14.4015 181.88 14.8174 180.215C16.0519 175.131 19.8004 171.237 24.4916 170.889L197.168 156.064C201.848 155.66 206.147 158.813 208.29 163.594C208.981 165.171 209.406 166.851 209.547 168.566Z" fill="#B76080"/>
<path opacity="0.1" d="M209.547 168.566L217.403 259.562C218.032 266.969 213.509 273.467 207.303 273.995L34.6259 288.809C28.4533 289.348 22.8755 283.714 22.2807 276.318L14.4246 185.311C14.2687 183.602 14.4015 181.88 14.8174 180.215C16.0519 175.131 19.8004 171.237 24.4916 170.889L197.168 156.064C201.848 155.66 206.147 158.813 208.29 163.594C208.981 165.171 209.406 166.851 209.547 168.566Z" fill="black"/>
<path d="M217.281 152.293L228.571 245.623C229.48 253.21 225.058 260.056 218.729 260.819L41.6415 282.244C35.3117 283.007 29.3747 277.418 28.4545 269.82L17.1642 176.501C16.9493 174.746 17.0252 172.967 17.3886 171.237C18.5109 165.974 22.192 161.877 27.0067 161.294L204.094 139.88C208.909 139.297 213.488 142.383 215.811 147.231C216.576 148.826 217.073 150.536 217.281 152.293Z" fill="#B76080"/>
<path opacity="0.1" d="M215.81 147.231L135.488 201.315C131.556 204.002 127.036 205.703 122.309 206.276C117.582 206.848 112.787 206.274 108.328 204.603L17.4219 171.237C18.5442 165.974 22.2253 161.877 27.04 161.294L204.127 139.88C208.908 139.297 213.487 142.383 215.81 147.231Z" fill="black"/>
<path d="M185.845 167.399L162.771 182.931L155.218 188.027L135.488 201.315C131.659 203.942 127.264 205.63 122.66 206.243C118.057 206.855 113.374 206.374 108.991 204.839L108.283 204.603L97.2176 200.54L72.3026 191.394L60.6532 187.118L47.455 182.269L46.501 158.937L44.3574 107.087L145.735 102.968L184.375 132.249L184.779 142.203L185.845 167.399Z" fill="#B76080"/>
<path opacity="0.7" d="M185.845 167.399L162.771 182.931L155.218 188.027L135.488 201.315C131.659 203.942 127.264 205.63 122.66 206.243C118.057 206.855 113.374 206.374 108.991 204.839L108.283 204.603L97.2176 200.54L72.3026 191.394L60.6532 187.118L47.455 182.269L46.501 158.937L44.3574 107.087L145.735 102.968L184.375 132.249L184.779 142.203L185.845 167.399Z" fill="#FAFAFA"/>
<g opacity="0.9">
<path d="M171.557 142.563L59.3269 147.119C58.7009 147.144 58.0901 146.923 57.6246 146.504C57.1591 146.084 56.8759 145.5 56.8354 144.875C56.8137 144.251 57.0359 143.642 57.455 143.179C57.874 142.716 58.4569 142.435 59.08 142.394L171.31 137.838C171.936 137.813 172.547 138.034 173.012 138.453C173.478 138.873 173.761 139.457 173.801 140.082C173.826 140.707 173.605 141.317 173.185 141.781C172.765 142.244 172.181 142.525 171.557 142.563Z" fill="white"/>
<path d="M172.152 157.478L59.9227 162.034C59.2967 162.059 58.6858 161.838 58.2203 161.419C57.7549 161 57.4717 160.415 57.4312 159.79C57.4093 159.164 57.6312 158.555 58.0499 158.09C58.4687 157.626 59.0516 157.342 59.6758 157.298L171.905 152.742C172.531 152.72 173.14 152.942 173.605 153.36C174.07 153.779 174.354 154.362 174.397 154.986C174.416 155.611 174.193 156.219 173.775 156.683C173.357 157.147 172.776 157.432 172.152 157.478Z" fill="white"/>
<path d="M172.758 172.382L60.5285 176.939C59.9025 176.963 59.2916 176.742 58.8262 176.323C58.3607 175.904 58.0775 175.319 58.037 174.694C58.0124 174.069 58.2336 173.459 58.6532 172.996C59.0728 172.532 59.6574 172.251 60.2816 172.214L172.511 167.657C173.136 167.633 173.746 167.854 174.209 168.273C174.673 168.693 174.954 169.278 174.992 169.902C175.016 170.525 174.797 171.133 174.379 171.596C173.962 172.06 173.38 172.341 172.758 172.382Z" fill="white"/>
<path d="M162.77 182.932L155.217 188.027L72.3018 191.394L60.6523 187.118C60.7493 187.106 60.8472 187.106 60.9442 187.118L162.77 182.932Z" fill="white"/>
<path d="M132.053 201.506V201.595C132.054 202.206 131.823 202.794 131.406 203.24C130.989 203.687 130.418 203.957 129.808 203.997L109.035 204.839L108.328 204.603L97.2617 200.54L129.618 199.216C130.241 199.207 130.844 199.44 131.299 199.868C131.753 200.295 132.024 200.882 132.053 201.506Z" fill="white"/>
</g>
<path opacity="0.1" d="M184.42 132.249L157.575 131.093L145.779 102.968L184.42 132.249Z" fill="#263238"/>
<path d="M184.42 132.249L158.371 127.793L145.779 102.968L184.42 132.249Z" fill="#B76080"/>
<path opacity="0.1" d="M201.95 17.718C196.742 23.4305 189.672 25.4731 186.159 22.2072C182.646 18.9413 184.015 11.781 189.212 6.06855C194.408 0.356059 201.489 -1.68653 205.013 1.51202C208.537 4.71057 207.157 12.0055 201.95 17.718Z" fill="white"/>
<path opacity="0.1" d="M186.607 40.7143C185.922 39.0084 186.102 37.3474 187.011 36.9658C187.92 36.5843 189.256 37.6841 189.895 39.39C190.535 41.0959 190.4 42.7569 189.491 43.1272C188.582 43.4976 187.292 42.409 186.607 40.7143Z" fill="white"/>
<path opacity="0.1" d="M22.1517 39.977C27.3566 34.263 28.7268 27.0355 25.2122 23.8342C21.6976 20.6328 14.6291 22.6697 9.42425 28.3838C4.21937 34.0978 2.84914 41.3252 6.36372 44.5266C9.87831 47.728 16.9468 45.6911 22.1517 39.977Z" fill="white"/>
<path d="M240.431 170.704C251.409 160.624 252.136 143.553 242.056 132.575C231.976 121.598 214.905 120.87 203.927 130.951C192.95 141.031 192.222 158.102 202.303 169.079C212.383 180.057 229.454 180.784 240.431 170.704Z" fill="#C63A3C"/>
<path d="M229.801 142.949L213.301 159.449M213.301 142.949L229.801 159.449" stroke="white" stroke-width="4" stroke-linecap="round" stroke-linejoin="round"/>
</svg>
