<svg width="19" height="27" viewBox="0 0 19 27" fill="none" xmlns="http://www.w3.org/2000/svg">
<path d="M17.3906 11.8125C17.6285 11.8125 17.8583 11.8987 18.0376 12.055C18.2169 12.2114 18.3335 12.4273 18.3658 12.663L18.375 12.7969V13.4531C18.3752 15.6891 17.5299 17.8424 16.0087 19.4812C14.4876 21.12 12.403 22.1229 10.1732 22.2889L10.1719 25.2656C10.1718 25.515 10.0771 25.7551 9.90679 25.9374C9.73652 26.1196 9.50342 26.2304 9.25459 26.2474C9.00577 26.2644 8.75977 26.1863 8.56629 26.0289C8.37282 25.8715 8.24631 25.6466 8.21231 25.3995L8.20312 25.2656V22.2889C6.02636 22.1272 3.98589 21.1677 2.47303 19.5943C0.960159 18.0208 0.0813925 15.9443 0.00525025 13.7629L0 13.4531V12.7969C7.64434e-05 12.5475 0.0948207 12.3074 0.265089 12.1251C0.435357 11.9429 0.668454 11.8321 0.91728 11.8151C1.16611 11.7981 1.41211 11.8762 1.60558 12.0336C1.79905 12.191 1.92557 12.4159 1.95956 12.663L1.96875 12.7969V13.4531C1.9686 15.2316 2.65613 16.9414 3.88754 18.2246C5.11895 19.5079 6.79886 20.2653 8.57588 20.3385L8.85938 20.3438H9.51562C11.2941 20.3439 13.0039 19.6564 14.2871 18.425C15.5704 17.1935 16.3278 15.5136 16.401 13.7366L16.4062 13.4531V12.7969C16.4062 12.5358 16.51 12.2854 16.6946 12.1008C16.8792 11.9162 17.1296 11.8125 17.3906 11.8125ZM9.1875 0C10.5799 0 11.9152 0.553123 12.8998 1.53769C13.8844 2.52226 14.4375 3.85761 14.4375 5.25V13.125C14.4375 14.5174 13.8844 15.8527 12.8998 16.8373C11.9152 17.8219 10.5799 18.375 9.1875 18.375C7.79511 18.375 6.45975 17.8219 5.47519 16.8373C4.49062 15.8527 3.9375 14.5174 3.9375 13.125V5.25C3.9375 3.85761 4.49062 2.52226 5.47519 1.53769C6.45975 0.553123 7.79511 0 9.1875 0Z" fill="white"/>
</svg>
