<svg width="128" height="48" viewBox="0 0 128 48" fill="none" xmlns="http://www.w3.org/2000/svg">
<g clip-path="url(#clip0_25870_142)">
<path d="M40.1197 32.4265L41.6727 28.995C43.3732 30.1854 45.5911 30.8155 47.8096 30.8155C49.4364 30.8155 50.4714 30.2205 50.4714 29.3103C50.4343 26.7891 40.6743 28.7499 40.6001 22.4113C40.5629 19.1898 43.5948 16.7037 47.8839 16.7037C50.4343 16.7037 52.9858 17.2992 54.797 18.665L53.3458 22.1697C51.6793 21.1567 49.6209 20.4504 47.6617 20.4504C46.3308 20.4504 45.4432 21.0454 45.4432 21.8163C45.4803 24.3024 55.3151 22.9366 55.4259 28.995C55.4259 32.2866 52.4677 34.5978 48.2529 34.5978C45.1479 34.5978 42.301 33.8976 40.1191 32.4265H40.1197ZM101.96 27.7524C101.568 28.4109 100.997 28.9589 100.307 29.3403C99.6174 29.7217 98.8325 29.9227 98.0332 29.9228C95.5422 29.9228 93.5231 28.0101 93.5231 25.6508C93.5231 23.2914 95.5422 21.3787 98.0332 21.3787C98.8325 21.3788 99.6174 21.5798 100.307 21.9612C100.997 22.3426 101.568 22.8906 101.96 23.5491L106.277 21.2835C104.66 18.5513 101.575 16.7037 98.0332 16.7037C92.8163 16.7037 88.5871 20.7091 88.5871 25.6508C88.5871 30.5919 92.8163 34.5978 98.0332 34.5978C101.575 34.5978 104.66 32.7503 106.277 30.018L101.96 27.7524ZM58.2276 34.2474H63.6254V9.25586H58.2282L58.2276 34.2474ZM109.003 9.25586V34.2474H114.401V26.76L120.797 34.2474H127.697L119.563 25.3525L127.105 17.0526H120.501L114.401 23.9531V9.25586H109.003ZM80.2551 17.0536V19.0851C79.368 17.6841 77.1866 16.7037 74.8944 16.7037C70.1621 16.7037 66.4282 20.661 66.4282 25.6332C66.4282 30.6055 70.1621 34.5978 74.8944 34.5978C77.1866 34.5978 79.368 33.6174 80.2551 32.2164V34.2474H85.6528V17.0536H80.2551ZM80.2551 27.787C79.4788 29.0125 77.852 29.9223 76.0408 29.9223C73.5492 29.9223 71.5301 28.0101 71.5301 25.6508C71.5301 23.2914 73.5492 21.3787 76.0408 21.3787C77.852 21.3787 79.4788 22.3241 80.2551 23.5842V27.787Z" fill="white"/>
<path d="M11.6131 8.70312C9.86391 8.70312 8.44607 10.0464 8.44607 11.703C8.44565 12.0966 8.52724 12.4864 8.68617 12.8501C8.84511 13.2139 9.07827 13.5444 9.37236 13.823C9.66645 14.1016 10.0157 14.3227 10.4002 14.4736C10.7847 14.6246 11.1968 14.7025 11.6131 14.7029H14.7807V11.703C14.7815 10.9081 14.4481 10.1456 13.8541 9.58299C13.2601 9.02041 12.454 8.70392 11.6131 8.70312ZM11.6131 16.7028H3.16708C1.41784 16.7028 0 18.0461 0 19.7032C0 21.3598 1.41784 22.7031 3.16708 22.7031H11.6137C13.3624 22.7031 14.7807 21.3598 14.7807 19.7032C14.7807 18.0461 13.3624 16.7028 11.6131 16.7028Z" fill="#36C5F0"/>
<path d="M31.6733 19.7032C31.6733 18.0461 30.255 16.7028 28.5057 16.7028C26.7565 16.7028 25.3386 18.0461 25.3386 19.7032V22.7031H28.5057C29.3466 22.7023 30.1527 22.3858 30.7467 21.8233C31.3407 21.2607 31.674 20.4981 31.6733 19.7032ZM23.2273 19.7032V11.703C23.228 10.9081 22.8946 10.1456 22.3006 9.58299C21.7066 9.02041 20.9005 8.70392 20.0597 8.70312C18.3104 8.70312 16.8926 10.0464 16.8926 11.703V19.7027C16.8926 21.3603 18.3104 22.7036 20.0597 22.7036C20.9005 22.7028 21.7066 22.3863 22.3006 21.8238C22.8946 21.2612 23.228 20.4986 23.2273 19.7037" fill="#2EB67D"/>
<path d="M20.0597 38.7031C20.9005 38.7023 21.7066 38.3858 22.3006 37.8233C22.8946 37.2607 23.228 36.4981 23.2273 35.7032C23.228 34.9084 22.8946 34.1458 22.3006 33.5832C21.7066 33.0206 20.9005 32.7041 20.0597 32.7033H16.8926V35.7032C16.8926 37.3598 18.3104 38.7031 20.0597 38.7031ZM20.0597 30.7034H28.5063C30.255 30.7034 31.6733 29.3601 31.6733 27.703C31.674 26.9081 31.3407 26.1456 30.7467 25.583C30.1527 25.0204 29.3466 24.7039 28.5057 24.7031H20.0597C18.3104 24.7031 16.8926 26.0464 16.8926 27.703C16.8922 28.0966 16.9738 28.4864 17.1327 28.8501C17.2916 29.2139 17.5248 29.5444 17.8189 29.823C18.113 30.1016 18.4622 30.3227 18.8467 30.4736C19.2312 30.6246 19.6433 30.7025 20.0597 30.7029" fill="#ECB22E"/>
<path d="M1.59803e-06 27.703C-0.000416398 28.0966 0.0811709 28.4864 0.240105 28.8501C0.399039 29.2139 0.632208 29.5444 0.926298 29.823C1.22039 30.1016 1.56964 30.3227 1.95411 30.4736C2.33859 30.6246 2.75075 30.7025 3.16708 30.7029C4.00793 30.7021 4.81402 30.3856 5.40804 29.823C6.00207 29.2605 6.33539 28.4979 6.33468 27.703V24.7031H3.16708C1.41784 24.7031 1.59803e-06 26.0464 1.59803e-06 27.703ZM8.44607 27.703V35.7027C8.44607 37.3598 9.86391 38.7031 11.6131 38.7031C12.454 38.7023 13.2601 38.3858 13.8541 37.8233C14.4481 37.2607 14.7815 36.4981 14.7808 35.7032V27.703C14.7812 27.3094 14.6996 26.9196 14.5406 26.5558C14.3816 26.192 14.1484 25.8614 13.8543 25.5828C13.5601 25.3043 13.2108 25.0832 12.8263 24.9323C12.4417 24.7813 12.0295 24.7035 11.6131 24.7031C9.86391 24.7031 8.44607 26.0464 8.44607 27.703Z" fill="#E01E5A"/>
</g>
<defs>
<clipPath id="clip0_25870_142">
<rect width="128" height="48" fill="white"/>
</clipPath>
</defs>
</svg>
