<svg width="80" height="80" viewBox="0 0 80 80" fill="none" xmlns="http://www.w3.org/2000/svg">
<path d="M0 40C0 17.9086 17.9086 0 40 0C62.0914 0 80 17.9086 80 40C80 62.0914 62.0914 80 40 80C17.9086 80 0 62.0914 0 40Z" fill="#D5D7DA"/>
<path d="M39.835 20.9165C34.8789 20.9165 30.8496 24.9457 30.8496 29.9019C30.8496 34.7635 34.6519 38.6981 39.608 38.8684C39.7593 38.8495 39.9107 38.8495 40.0242 38.8684C40.062 38.8684 40.0809 38.8684 40.1188 38.8684C40.1377 38.8684 40.1377 38.8684 40.1566 38.8684C44.9992 38.6981 48.8015 34.7635 48.8204 29.9019C48.8204 24.9457 44.7912 20.9165 39.835 20.9165Z" fill="white"/>
<path d="M49.4465 43.9001C44.1687 40.3816 35.5617 40.3816 30.2461 43.9001C27.8437 45.508 26.5195 47.6834 26.5195 50.0102C26.5195 52.3369 27.8437 54.4934 30.2272 56.0824C32.8755 57.8606 36.3562 58.7497 39.8368 58.7497C43.3175 58.7497 46.7982 57.8606 49.4465 56.0824C51.83 54.4745 53.1541 52.318 53.1541 49.9723C53.1352 47.6456 51.83 45.4891 49.4465 43.9001Z" fill="white"/>
</svg>
