<svg width="97" height="29" viewBox="0 0 97 29" fill="none" xmlns="http://www.w3.org/2000/svg">
<mask id="mask0_25870_418" style="mask-type:luminance" maskUnits="userSpaceOnUse" x="0" y="12" width="10" height="17">
<path d="M9.19727 12.2217H0.533212V28.9998H9.19727V12.2217Z" fill="white"/>
</mask>
<g mask="url(#mask0_25870_418)">
<path d="M9 20.9056L8.96574 24.9523L8.93049 29C6.04839 26.8971 3.41495 24.9564 0.532847 22.8535C0.532847 19.2357 0.817701 15.4896 1.38355 12L9 20.9056Z" fill="#855400"/>
</g>
<g clip-path="url(#clip0_25870_418)">
<path d="M97 10.5C97 4.70101 92.299 0 86.5 0H0V21H86.5C92.299 21 97 16.299 97 10.5Z" fill="#F3B64C"/>
<path d="M7.128 15V6.6H11.064C12.072 6.6 12.84 6.8 13.368 7.2C13.896 7.592 14.16 8.12 14.16 8.784C14.16 9.232 14.056 9.616 13.848 9.936C13.64 10.248 13.36 10.492 13.008 10.668C12.664 10.836 12.288 10.92 11.88 10.92L12.096 10.488C12.568 10.488 12.992 10.576 13.368 10.752C13.744 10.92 14.04 11.168 14.256 11.496C14.48 11.824 14.592 12.232 14.592 12.72C14.592 13.44 14.316 14 13.764 14.4C13.212 14.8 12.392 15 11.304 15H7.128ZM8.688 13.776H11.208C11.792 13.776 12.24 13.68 12.552 13.488C12.864 13.296 13.02 12.988 13.02 12.564C13.02 12.148 12.864 11.844 12.552 11.652C12.24 11.452 11.792 11.352 11.208 11.352H8.568V10.14H10.896C11.44 10.14 11.856 10.044 12.144 9.852C12.44 9.66 12.588 9.372 12.588 8.988C12.588 8.596 12.44 8.304 12.144 8.112C11.856 7.92 11.44 7.824 10.896 7.824H8.688V13.776ZM18.7649 15.084C18.0529 15.084 17.4289 14.944 16.8929 14.664C16.3649 14.376 15.9529 13.984 15.6569 13.488C15.3689 12.992 15.2249 12.428 15.2249 11.796C15.2249 11.156 15.3649 10.592 15.6449 10.104C15.9329 9.608 16.3249 9.22 16.8209 8.94C17.3249 8.66 17.8969 8.52 18.5369 8.52C19.1609 8.52 19.7169 8.656 20.2049 8.928C20.6929 9.2 21.0769 9.584 21.3569 10.08C21.6369 10.576 21.7769 11.16 21.7769 11.832C21.7769 11.896 21.7729 11.968 21.7649 12.048C21.7649 12.128 21.7609 12.204 21.7529 12.276H16.4129V11.28H20.9609L20.3729 11.592C20.3809 11.224 20.3049 10.9 20.1449 10.62C19.9849 10.34 19.7649 10.12 19.4849 9.96C19.2129 9.8 18.8969 9.72 18.5369 9.72C18.1689 9.72 17.8449 9.8 17.5649 9.96C17.2929 10.12 17.0769 10.344 16.9169 10.632C16.7649 10.912 16.6889 11.244 16.6889 11.628V11.868C16.6889 12.252 16.7769 12.592 16.9529 12.888C17.1289 13.184 17.3769 13.412 17.6969 13.572C18.0169 13.732 18.3849 13.812 18.8009 13.812C19.1609 13.812 19.4849 13.756 19.7729 13.644C20.0609 13.532 20.3169 13.356 20.5409 13.116L21.3449 14.04C21.0569 14.376 20.6929 14.636 20.2529 14.82C19.8209 14.996 19.3249 15.084 18.7649 15.084ZM24.8377 15.084C24.3017 15.084 23.7857 15.016 23.2897 14.88C22.8017 14.736 22.4137 14.564 22.1257 14.364L22.7017 13.224C22.9897 13.408 23.3337 13.56 23.7337 13.68C24.1337 13.8 24.5337 13.86 24.9338 13.86C25.4057 13.86 25.7457 13.796 25.9537 13.668C26.1697 13.54 26.2777 13.368 26.2777 13.152C26.2777 12.976 26.2057 12.844 26.0617 12.756C25.9178 12.66 25.7298 12.588 25.4977 12.54C25.2657 12.492 25.0057 12.448 24.7177 12.408C24.4377 12.368 24.1537 12.316 23.8657 12.252C23.5857 12.18 23.3297 12.08 23.0977 11.952C22.8657 11.816 22.6777 11.636 22.5337 11.412C22.3897 11.188 22.3177 10.892 22.3177 10.524C22.3177 10.116 22.4337 9.764 22.6657 9.468C22.8977 9.164 23.2217 8.932 23.6377 8.772C24.0617 8.604 24.5617 8.52 25.1377 8.52C25.5697 8.52 26.0057 8.568 26.4457 8.664C26.8857 8.76 27.2498 8.896 27.5378 9.072L26.9618 10.212C26.6577 10.028 26.3497 9.904 26.0377 9.84C25.7337 9.768 25.4297 9.732 25.1258 9.732C24.6697 9.732 24.3297 9.8 24.1057 9.936C23.8897 10.072 23.7817 10.244 23.7817 10.452C23.7817 10.644 23.8537 10.788 23.9977 10.884C24.1417 10.98 24.3297 11.056 24.5617 11.112C24.7937 11.168 25.0497 11.216 25.3297 11.256C25.6177 11.288 25.9017 11.34 26.1818 11.412C26.4618 11.484 26.7177 11.584 26.9497 11.712C27.1897 11.832 27.3817 12.004 27.5257 12.228C27.6697 12.452 27.7418 12.744 27.7418 13.104C27.7418 13.504 27.6217 13.852 27.3817 14.148C27.1497 14.444 26.8177 14.676 26.3857 14.844C25.9538 15.004 25.4377 15.084 24.8377 15.084ZM31.0855 15.084C30.3815 15.084 29.8375 14.904 29.4535 14.544C29.0695 14.176 28.8775 13.636 28.8775 12.924V7.176H30.3775V12.888C30.3775 13.192 30.4535 13.428 30.6055 13.596C30.7655 13.764 30.9855 13.848 31.2655 13.848C31.6015 13.848 31.8815 13.76 32.1055 13.584L32.5255 14.652C32.3495 14.796 32.1335 14.904 31.8775 14.976C31.6215 15.048 31.3575 15.084 31.0855 15.084ZM27.8215 9.84V8.64H32.0935V9.84H27.8215ZM36.4999 15V6.6H39.9559C40.6999 6.6 41.3359 6.72 41.8639 6.96C42.3999 7.2 42.8119 7.544 43.0999 7.992C43.3879 8.44 43.5319 8.972 43.5319 9.588C43.5319 10.204 43.3879 10.736 43.0999 11.184C42.8119 11.632 42.3999 11.976 41.8639 12.216C41.3359 12.456 40.6999 12.576 39.9559 12.576H37.3639L38.0599 11.844V15H36.4999ZM38.0599 12.012L37.3639 11.256H39.8839C40.5719 11.256 41.0879 11.112 41.4319 10.824C41.7839 10.528 41.9599 10.116 41.9599 9.588C41.9599 9.052 41.7839 8.64 41.4319 8.352C41.0879 8.064 40.5719 7.92 39.8839 7.92H37.3639L38.0599 7.152V12.012ZM47.4423 15.084C46.7863 15.084 46.2023 14.944 45.6903 14.664C45.1783 14.376 44.7743 13.984 44.4783 13.488C44.1823 12.992 44.0343 12.428 44.0343 11.796C44.0343 11.156 44.1823 10.592 44.4783 10.104C44.7743 9.608 45.1783 9.22 45.6903 8.94C46.2023 8.66 46.7863 8.52 47.4423 8.52C48.1063 8.52 48.6943 8.66 49.2063 8.94C49.7263 9.22 50.1303 9.604 50.4183 10.092C50.7143 10.58 50.8623 11.148 50.8623 11.796C50.8623 12.428 50.7143 12.992 50.4183 13.488C50.1303 13.984 49.7263 14.376 49.2063 14.664C48.6943 14.944 48.1063 15.084 47.4423 15.084ZM47.4423 13.8C47.8103 13.8 48.1383 13.72 48.4263 13.56C48.7143 13.4 48.9383 13.168 49.0983 12.864C49.2663 12.56 49.3503 12.204 49.3503 11.796C49.3503 11.38 49.2663 11.024 49.0983 10.728C48.9383 10.424 48.7143 10.192 48.4263 10.032C48.1383 9.872 47.8143 9.792 47.4543 9.792C47.0863 9.792 46.7583 9.872 46.4703 10.032C46.1903 10.192 45.9663 10.424 45.7983 10.728C45.6303 11.024 45.5463 11.38 45.5463 11.796C45.5463 12.204 45.6303 12.56 45.7983 12.864C45.9663 13.168 46.1903 13.4 46.4703 13.56C46.7583 13.72 47.0823 13.8 47.4423 13.8ZM51.9367 15V8.592H53.3647V10.356L53.1967 9.84C53.3887 9.408 53.6887 9.08 54.0967 8.856C54.5127 8.632 55.0287 8.52 55.6447 8.52V9.948C55.5807 9.932 55.5207 9.924 55.4647 9.924C55.4087 9.916 55.3527 9.912 55.2967 9.912C54.7287 9.912 54.2767 10.08 53.9407 10.416C53.6047 10.744 53.4367 11.236 53.4367 11.892V15H51.9367ZM59.2035 15.084C58.4995 15.084 57.9555 14.904 57.5715 14.544C57.1875 14.176 56.9955 13.636 56.9955 12.924V7.176H58.4955V12.888C58.4955 13.192 58.5715 13.428 58.7235 13.596C58.8835 13.764 59.1035 13.848 59.3835 13.848C59.7195 13.848 59.9995 13.76 60.2235 13.584L60.6435 14.652C60.4675 14.796 60.2515 14.904 59.9955 14.976C59.7395 15.048 59.4755 15.084 59.2035 15.084ZM55.9395 9.84V8.64H60.2115V9.84H55.9395ZM61.7214 15V8.232C61.7214 7.56 61.9174 7.024 62.3094 6.624C62.7094 6.216 63.2774 6.012 64.0134 6.012C64.2774 6.012 64.5254 6.04 64.7574 6.096C64.9974 6.152 65.1974 6.24 65.3574 6.36L64.9494 7.488C64.8374 7.4 64.7094 7.336 64.5654 7.296C64.4214 7.248 64.2734 7.224 64.1214 7.224C63.8094 7.224 63.5734 7.312 63.4134 7.488C63.2534 7.656 63.1734 7.912 63.1734 8.256V8.976L63.2214 9.648V15H61.7214ZM60.6654 9.84V8.64H64.9374V9.84H60.6654ZM68.3734 15.084C67.7174 15.084 67.1334 14.944 66.6214 14.664C66.1094 14.376 65.7054 13.984 65.4094 13.488C65.1134 12.992 64.9654 12.428 64.9654 11.796C64.9654 11.156 65.1134 10.592 65.4094 10.104C65.7054 9.608 66.1094 9.22 66.6214 8.94C67.1334 8.66 67.7174 8.52 68.3734 8.52C69.0374 8.52 69.6254 8.66 70.1374 8.94C70.6574 9.22 71.0614 9.604 71.3494 10.092C71.6454 10.58 71.7934 11.148 71.7934 11.796C71.7934 12.428 71.6454 12.992 71.3494 13.488C71.0614 13.984 70.6574 14.376 70.1374 14.664C69.6254 14.944 69.0374 15.084 68.3734 15.084ZM68.3734 13.8C68.7414 13.8 69.0694 13.72 69.3574 13.56C69.6454 13.4 69.8694 13.168 70.0294 12.864C70.1974 12.56 70.2814 12.204 70.2814 11.796C70.2814 11.38 70.1974 11.024 70.0294 10.728C69.8694 10.424 69.6454 10.192 69.3574 10.032C69.0694 9.872 68.7454 9.792 68.3854 9.792C68.0174 9.792 67.6894 9.872 67.4014 10.032C67.1214 10.192 66.8974 10.424 66.7294 10.728C66.5614 11.024 66.4774 11.38 66.4774 11.796C66.4774 12.204 66.5614 12.56 66.7294 12.864C66.8974 13.168 67.1214 13.4 67.4014 13.56C67.6894 13.72 68.0134 13.8 68.3734 13.8ZM72.8678 15V6.096H74.3678V15H72.8678ZM75.9765 15V8.592H77.4765V15H75.9765ZM76.7325 7.536C76.4525 7.536 76.2205 7.448 76.0365 7.272C75.8605 7.096 75.7725 6.884 75.7725 6.636C75.7725 6.38 75.8605 6.168 76.0365 6C76.2205 5.824 76.4525 5.736 76.7325 5.736C77.0125 5.736 77.2405 5.82 77.4165 5.988C77.6005 6.148 77.6925 6.352 77.6925 6.6C77.6925 6.864 77.6045 7.088 77.4285 7.272C77.2525 7.448 77.0205 7.536 76.7325 7.536ZM81.9653 15.084C81.3092 15.084 80.7252 14.944 80.2132 14.664C79.7012 14.376 79.2972 13.984 79.0012 13.488C78.7052 12.992 78.5572 12.428 78.5572 11.796C78.5572 11.156 78.7052 10.592 79.0012 10.104C79.2972 9.608 79.7012 9.22 80.2132 8.94C80.7252 8.66 81.3092 8.52 81.9653 8.52C82.6293 8.52 83.2172 8.66 83.7292 8.94C84.2493 9.22 84.6533 9.604 84.9413 10.092C85.2373 10.58 85.3853 11.148 85.3853 11.796C85.3853 12.428 85.2373 12.992 84.9413 13.488C84.6533 13.984 84.2493 14.376 83.7292 14.664C83.2172 14.944 82.6293 15.084 81.9653 15.084ZM81.9653 13.8C82.3333 13.8 82.6612 13.72 82.9492 13.56C83.2372 13.4 83.4612 13.168 83.6212 12.864C83.7893 12.56 83.8733 12.204 83.8733 11.796C83.8733 11.38 83.7893 11.024 83.6212 10.728C83.4612 10.424 83.2372 10.192 82.9492 10.032C82.6612 9.872 82.3372 9.792 81.9772 9.792C81.6092 9.792 81.2812 9.872 80.9932 10.032C80.7132 10.192 80.4892 10.424 80.3212 10.728C80.1532 11.024 80.0692 11.38 80.0692 11.796C80.0692 12.204 80.1532 12.56 80.3212 12.864C80.4892 13.168 80.7132 13.4 80.9932 13.56C81.2812 13.72 81.6052 13.8 81.9653 13.8Z" fill="#0A0D12"/>
</g>
<defs>
<clipPath id="clip0_25870_418">
<path d="M97 10.5C97 4.70101 92.299 0 86.5 0H0V21H86.5C92.299 21 97 16.299 97 10.5Z" fill="white"/>
</clipPath>
</defs>
</svg>
